<?xml version="1.0" encoding="UTF-8"?>
<svg width="152px" height="25px" viewBox="0 0 152 25" version="1.1" xmlns="http://www.w3.org/2000/svg" xmlns:xlink="http://www.w3.org/1999/xlink">
    <title>logo</title>
    <defs>
        <polyline id="path-1" points="0 0.253461538 151.964914 0.253461538 151.964914 25 0 25"></polyline>
    </defs>
    <g id="Symbols" stroke="none" stroke-width="1" fill="none" fill-rule="evenodd">
        <g id="header-orange" transform="translate(-244.000000, -30.000000)">
            <g id="logo" transform="translate(244.000000, 30.000000)">
                <path d="M19.0406596,12.6179231 C19.0406596,11.4206154 18.8881373,10.3440769 18.5838516,9.38523077 C18.2803247,8.42792308 17.8424872,7.61484615 17.2718566,6.951 C16.7016055,6.28561538 16.0023554,5.77676923 15.1771416,5.42138462 C14.3507896,5.06715385 13.4102357,4.88984615 12.3566179,4.88984615 C11.2916179,4.88984615 10.342717,5.06715385 9.51257089,5.42138462 C8.68052779,5.77676923 7.98051888,6.28561538 7.40950891,6.951 C6.83811952,7.61484615 6.4014202,8.42792308 6.09599626,9.38523077 C5.79246936,10.3440769 5.6399471,11.4206154 5.6399471,12.6179231 C5.6399471,13.8256154 5.79246936,14.9086923 6.09599626,15.866 C6.4014202,16.8252308 6.83811952,17.6367692 7.40950891,18.3021538 C7.98051888,18.9663846 8.68052779,19.4733077 9.51257089,19.8217692 C10.342717,20.1717692 11.2916179,20.3456154 12.3566179,20.3456154 C13.4102357,20.3456154 14.3507896,20.1717692 15.1771416,19.8217692 C16.0023554,19.4733077 16.7016055,18.9663846 17.2718566,18.3021538 C17.8424872,17.6367692 18.2803247,16.8252308 18.5838516,15.866 C18.8881373,14.9086923 19.0406596,13.8256154 19.0406596,12.6179231 M24.681707,12.6179231 C24.681707,14.3690769 24.38463,15.9975385 23.7923732,17.5044615 C23.1997369,19.011 22.366935,20.3213846 21.2905527,21.4344615 C20.2149293,22.5471538 18.9188694,23.4198462 17.4023732,24.0513846 C15.8858769,24.6829231 14.2047173,24.9990769 12.3566179,24.9990769 C10.5088979,24.9990769 8.82508247,24.6829231 7.30327449,24.0513846 C5.78184592,23.4198462 4.48085376,22.5471538 3.39915978,21.4344615 C2.31632757,20.3213846 1.48086979,19.011 0.887854115,17.5044615 C0.295976665,15.9975385 3.79408621e-05,14.3690769 3.79408621e-05,12.6179231 C3.79408621e-05,10.8679231 0.295976665,9.23907692 0.887854115,7.731 C1.48086979,6.22446154 2.31632757,4.91830769 3.39915978,3.80946154 C4.48085376,2.70138462 5.78184592,1.83176923 7.30327449,1.20023077 C8.82508247,0.568692308 10.5088979,0.253692308 12.3566179,0.253692308 C14.2047173,0.253692308 15.8858769,0.571769231 17.4023732,1.20869231 C18.9188694,1.84715385 20.2149293,2.71946154 21.2905527,3.82676923 C22.366935,4.93446154 23.1997369,6.24215385 23.7923732,7.74907692 C24.38463,9.25561538 24.681707,10.8786923 24.681707,12.6179231" id="Fill-1" fill="#FFFFFF"></path>
                <g id="Group-5">
                    <mask id="mask-2" fill="white">
                        <use xlink:href="#path-1"></use>
                    </mask>
                    <g id="Clip-4"></g>
                    <path d="M40.1274699,18.3022692 C39.5655657,18.9665 38.8765597,19.4734231 38.063487,19.8222692 C37.2492761,20.1715 36.3223808,20.3457308 35.2843188,20.3457308 C34.2348746,20.3457308 33.3000118,20.1715 32.4823862,19.8222692 C31.6621047,19.4734231 30.9723399,18.9665 30.4100563,18.3022692 C29.8466345,17.6368846 29.4167645,16.8253462 29.1158935,15.8661154 C28.8165401,14.9088077 28.6662943,13.8253462 28.6662943,12.6180385 C28.6662943,11.4207308 28.8165401,10.3441923 29.1158935,9.38534615 C29.4167645,8.42803846 29.8466345,7.61496154 30.4100563,6.95073077 C30.9723399,6.28573077 31.6621047,5.77688462 32.4823862,5.4215 C33.3000118,5.06688462 34.2348746,4.88957692 35.2843188,4.88957692 C36.3223808,4.88957692 37.2492761,5.06688462 38.063487,5.4215 C38.8765597,5.77688462 39.5655657,6.28573077 40.1274699,6.95073077 C40.3991265,7.2715 40.6404304,7.6265 40.8494845,8.01688462 C41.2531753,8.77073077 42.2665757,8.68073077 42.2665757,8.68073077 L46.8619729,8.68073077 C46.7678796,8.3665 46.6703716,8.05380769 46.5519961,7.74919231 C45.9684656,6.24226923 45.1474254,4.93457692 44.0869783,3.82688462 C43.0269106,2.71919231 41.7498212,1.84688462 40.2560894,1.20880769 C38.7615989,0.5715 37.1058596,0.253423077 35.2843188,0.253423077 C33.4639163,0.253423077 31.8047624,0.568807692 30.3057189,1.20034615 C28.8066755,1.83188462 27.5242743,2.70111538 26.4585155,3.80919231 C25.3919979,4.91842308 24.5686812,6.22457692 23.9843919,7.73111538 C23.4012408,9.23919231 23.1094756,10.8676538 23.1094756,12.6180385 C23.1094756,14.3688077 23.4012408,15.9976538 23.9843919,17.5045769 C24.5686812,19.0111154 25.3919979,20.3215 26.4585155,21.4345769 C27.5242743,22.5472692 28.8066755,23.4199615 30.3057189,24.0511154 C31.8047624,24.6830385 33.4639163,24.9991923 35.2843188,24.9991923 C37.1058596,24.9991923 38.7615989,24.6830385 40.2560894,24.0511154 C41.7498212,23.4199615 43.0269106,22.5472692 44.0869783,21.4345769 C45.1474254,20.3215 45.9684656,19.0111154 46.5519961,17.5045769 C46.6703716,17.1995769 46.768259,16.8853462 46.8623523,16.5707308 L42.2665757,16.5707308 C41.8446733,16.5707308 41.1678083,16.6126538 40.7462854,17.3345769 C40.5789662,17.6211154 40.4366879,17.9365 40.1274699,18.3022692" id="Fill-3" fill="#FFFFFF" mask="url(#mask-2)"></path>
                </g>
                <path d="M73.6419613,12.6179231 C73.6419613,11.4206154 73.4898185,10.3440769 73.1859122,9.38523077 C72.8823853,8.42792308 72.4445477,7.61484615 71.8739172,6.951 C71.3032866,6.28561538 70.6040365,5.77676923 69.7792022,5.42138462 C68.9524708,5.06715385 68.0119168,4.88984615 66.9579197,4.88984615 C65.8932991,4.88984615 64.9447775,5.06715385 64.1146315,5.42138462 C63.2818295,5.77676923 62.5818206,6.28561538 62.0111901,6.951 C61.4398007,7.61484615 61.0027219,8.42792308 60.6976774,9.38523077 C60.3941505,10.3440769 60.2412488,11.4206154 60.2412488,12.6179231 C60.2412488,13.8256154 60.3941505,14.9086923 60.6976774,15.866 C61.0027219,16.8252308 61.4398007,17.6367692 62.0111901,18.3021538 C62.5818206,18.9663846 63.2818295,19.4733077 64.1146315,19.8217692 C64.9447775,20.1717692 65.8932991,20.3456154 66.9579197,20.3456154 C68.0119168,20.3456154 68.9524708,20.1717692 69.7792022,19.8217692 C70.6040365,19.4733077 71.3032866,18.9663846 71.8739172,18.3021538 C72.4445477,17.6367692 72.8823853,16.8252308 73.1859122,15.866 C73.4898185,14.9086923 73.6419613,13.8256154 73.6419613,12.6179231 M79.2830087,12.6179231 C79.2830087,14.3690769 78.985173,15.9975385 78.3948131,17.5044615 C77.8010387,19.011 76.9678573,20.3213846 75.8929927,21.4344615 C74.816231,22.5471538 73.52093,23.4198462 72.0036749,24.0513846 C70.4875581,24.6829231 68.8063985,24.9990769 66.9579197,24.9990769 C65.1101997,24.9990769 63.4267636,24.6829231 61.9053351,24.0513846 C60.3831477,23.4198462 59.0817761,22.5471538 58.0012203,21.4344615 C56.9176293,20.3213846 56.0817921,19.011 55.4895353,17.5044615 C54.8976578,15.9975385 54.6017191,14.3690769 54.6017191,12.6179231 C54.6017191,10.8679231 54.8976578,9.23907692 55.4895353,7.731 C56.0817921,6.22446154 56.9176293,4.91830769 58.0012203,3.80946154 C59.0817761,2.70138462 60.3831477,1.83176923 61.9053351,1.20023077 C63.4267636,0.568692308 65.1101997,0.253692308 66.9579197,0.253692308 C68.8063985,0.253692308 70.4875581,0.571769231 72.0036749,1.20869231 C73.52093,1.84715385 74.816231,2.71946154 75.8929927,3.82676923 C76.9678573,4.93446154 77.8010387,6.24215385 78.3948131,7.74907692 C78.985173,9.25561538 79.2830087,10.8786923 79.2830087,12.6179231" id="Fill-6" fill="#FFFFFF"></path>
                <path d="M85.4456671,14.4625 L85.4456671,20.4959615 L89.3456083,20.4959615 C90.0782463,20.4959615 90.677712,20.4009615 91.1424875,20.2132692 C91.6065043,20.0240385 91.9703571,19.7801923 92.2321491,19.4817308 C92.4946999,19.1825 92.6745395,18.8448077 92.7731858,18.4667308 C92.8710732,18.0913462 92.9203963,17.7086538 92.9203963,17.3217308 C92.9203963,16.8778846 92.863485,16.4790385 92.7489036,16.1244231 C92.6343222,15.7701923 92.4377886,15.4713462 92.1593026,15.2267308 C91.8800579,14.9832692 91.5101345,14.7948077 91.0510501,14.6613462 C90.5919656,14.5290385 90.0133675,14.4625 89.3141174,14.4625 L85.4456671,14.4625 Z M85.4456671,10.7063462 L88.3306902,10.7063462 C88.9422969,10.7063462 89.4939571,10.6625 89.9868089,10.5744231 C90.4777636,10.4851923 90.8962513,10.3309615 91.2407544,10.1090385 C91.5852574,9.88711538 91.8462905,9.5825 92.0280273,9.19442308 C92.2082463,8.80634615 92.2974074,8.31942308 92.2974074,7.73134615 C92.2974074,7.15673077 92.2272168,6.67673077 92.0849385,6.29365385 C91.9426603,5.9125 91.7237415,5.60519231 91.4285616,5.37134615 C91.1341405,5.13865385 90.7589054,4.97365385 90.3062709,4.87365385 C89.8517394,4.77365385 89.3141174,4.72365385 88.6915078,4.72365385 L85.4456671,4.72365385 L85.4456671,10.7063462 Z M79.9047836,24.7332692 L79.9047836,0.518653846 L88.6915078,0.518653846 C90.3419353,0.518653846 91.7465061,0.674423077 92.9044612,0.984038462 C94.0627957,1.29480769 95.0086614,1.73173077 95.7405406,2.2975 C96.4727993,2.86211538 97.005489,3.54942308 97.3393685,4.35826923 C97.6724893,5.16711538 97.8398085,6.07057692 97.8398085,7.0675 C97.8398085,7.60980769 97.7624092,8.13288462 97.6098869,8.6375 C97.4562264,9.14211538 97.2164401,9.61519231 96.8878723,10.0590385 C96.5600632,10.5013462 96.1404373,10.9025 95.6259592,11.2640385 C95.1126193,11.6236538 94.4945627,11.9363462 93.7725481,12.2025 C95.3478527,12.5909615 96.5107401,13.2198077 97.2661427,14.0894231 C98.0196482,14.9594231 98.396401,16.0744231 98.396401,17.4375 C98.396401,18.4667308 98.1994879,19.4259615 97.8060411,20.3117308 C97.4125944,21.1990385 96.8358933,21.9709615 96.0770761,22.6313462 C95.3171206,23.2901923 94.3799813,23.8055769 93.2648994,24.1759615 C92.1501968,24.5478846 90.8769015,24.7332692 89.444634,24.7332692 L79.9047836,24.7332692 Z" id="Fill-8" fill="#FFFFFF"></path>
                <polygon id="Fill-10" fill="#FFFFFF" points="114.575675 0.5185 114.575675 4.83965385 104.771376 4.83965385 104.771376 10.4904231 112.279873 10.4904231 112.279873 14.6454231 104.771376 14.6454231 104.771376 20.4115769 114.575675 20.4115769 114.575675 24.7331154 99.1978637 24.7331154 99.1978637 0.5185"></polygon>
                <path d="M121.178637,11.9037308 L123.408421,11.9037308 C124.161547,11.9037308 124.804265,11.8064231 125.334299,11.6129615 C125.864713,11.4183462 126.299515,11.1502692 126.638327,10.8064231 C126.977139,10.4633462 127.222616,10.0614231 127.375897,9.60219231 C127.52766,9.14180769 127.605819,8.64565385 127.605819,8.11411538 C127.605819,7.05103846 127.263592,6.21911538 126.580657,5.62180769 C125.897721,5.02257692 124.83993,4.72373077 123.408421,4.72373077 L121.178637,4.72373077 L121.178637,11.9037308 Z M121.178637,15.7756538 L121.178637,24.7333462 L115.637753,24.7333462 L115.637753,0.518346154 L123.408421,0.518346154 C125.134351,0.518346154 126.607215,0.699884615 127.826634,1.0595 C129.044916,1.4195 130.040484,1.92103846 130.809924,2.56334615 C131.580883,3.20642308 132.140131,3.9645 132.491463,4.83988462 C132.84014,5.71488462 133.015047,6.66796154 133.015047,7.69911538 C133.015047,8.48603846 132.911089,9.22719231 132.702794,9.92488462 C132.496775,10.6229615 132.186798,11.2695 131.777796,11.8618077 C131.367655,12.4541154 130.864559,12.9829615 130.269647,13.4487308 C129.673216,13.9145 128.987245,14.2960385 128.210975,14.5952692 C128.583175,14.7845 128.930334,15.0171923 129.252452,15.2929615 C129.574191,15.5702692 129.856471,15.9083462 130.098154,16.3071923 L135.179194,24.7333462 L130.163412,24.7333462 C129.233102,24.7333462 128.56724,24.3787308 128.162791,23.6702692 L124.195315,16.6398846 C124.020407,16.3287308 123.814768,16.1083462 123.579914,15.9741154 C123.345819,15.8421923 123.014216,15.7756538 122.589278,15.7756538 L121.178637,15.7756538 Z" id="Fill-12" fill="#FFFFFF"></path>
                <path d="M48.3097583,0.5185 L48.3097583,10.2273462 L42.2229058,10.2273462 C41.6720045,10.2273462 41.2258199,10.6611923 41.2258199,11.1954231 L41.2258199,14.0561923 C41.2258199,14.5911923 41.6720045,15.0246538 42.2229058,15.0246538 L48.3097583,15.0246538 L48.3097583,24.7331154 L53.8506418,24.7331154 L53.8506418,0.5185 L48.3097583,0.5185 Z" id="Fill-14" fill="#FFFFFF"></path>
                <path d="M151.946286,12.1076923 C151.558909,5.78538462 144.672643,0.314615385 141.835805,0.254230769 C138.997828,0.193076923 133.694075,6.88884615 133.47933,13.6919231 C133.278243,20.0707692 138.722377,24.445 141.065985,25 C141.131243,21.9988462 141.371408,10.9492308 141.411626,9.66076923 C141.496234,7.02769231 141.625612,2.93076923 142.065347,2.79461538 C142.317654,2.71653846 142.661398,5.01961538 142.619283,6.38076923 C142.610557,6.64038462 142.607522,7.48153846 142.607522,8.67538462 C143.082162,8.19269231 143.57767,7.69153846 143.87892,7.39538462 C144.704893,6.58384615 145.070263,6.68038462 144.67416,7.40423077 C144.430201,7.84961538 143.381136,9.33038462 142.609798,10.4034615 C142.613972,12.5676923 142.623836,15.2915385 142.63408,17.8296154 C143.723362,16.5546154 145.056984,15.0261538 145.757372,14.3465385 C147.226822,12.9223077 147.383138,13.1019231 146.6892,14.5969231 C146.263124,15.5130769 144.179412,17.9569231 142.641669,19.8842308 C142.651154,22.1365385 142.658742,24.03 142.66026,24.9338462 C146.785569,24.0265385 152.325315,18.315 151.946286,12.1076923" id="Fill-16" fill="#FFFFFF"></path>
            </g>
        </g>
    </g>
</svg>