<?xml version="1.0" encoding="UTF-8" standalone="no"?>
<svg width="40px" height="40px" viewBox="0 0 40 40" version="1.1" xmlns="http://www.w3.org/2000/svg" xmlns:xlink="http://www.w3.org/1999/xlink" xmlns:sketch="http://www.bohemiancoding.com/sketch/ns">
    <!-- Generator: Sketch 3.4.4 (17249) - http://www.bohemiancoding.com/sketch -->
    <title>dashboard-icon</title>
    <desc>Created with Sketch.</desc>
    <defs></defs>
    <g id="Page-1" stroke="none" stroke-width="1" fill="none" fill-rule="evenodd" sketch:type="MSPage">
        <g id="speed" sketch:type="MSLayerGroup">
            <path fill="#7986CB" d="M20 3.542C9.14 3.542.336 12.347.336 23.207c0 4.713 1.66 9.032 4.424 12.42l1.552-3.105H33.69l1.55 3.104c2.763-3.387 4.425-7.706 4.425-12.42 0-10.86-8.806-19.664-19.665-19.664z"/>
            <path fill="#ECEFF1" d="M36.56 23.206c0-9.145-7.415-16.56-16.56-16.56-9.144 0-16.56 7.415-16.56 16.56 0 3.454 1.062 6.66 2.872 9.314L4.76 35.625h30.48l-1.55-3.104c1.807-2.654 2.87-5.86 2.87-9.314z"/>
            <path fill="#455A64" d="M3.473 22.17c-.02.345-.032.687-.032 1.036 0 .35.012.69.033 1.035h4.16c-.028-.34-.053-.686-.053-1.034 0-.35.024-.694.052-1.036h-4.16zm6.402 8.192c-.407-.557-.768-1.145-1.08-1.766l-3.55 2.157c.325.614.67 1.2 1.067 1.767l3.563-2.158zm2.823-17.187c.557-.405 1.146-.765 1.77-1.075l-2.114-3.585c-.615.322-1.226.69-1.792 1.083l2.136 3.577zM8.75 17.97c.293-.63.63-1.233 1.02-1.8l-3.567-2.125c-.378.576-.77 1.247-1.075 1.87L8.75 17.97zm12.286-7.13V6.68c-.346-.023-.687-.033-1.036-.033s-.69-.022-1.035 0v4.193c.343-.03.687-.054 1.035-.054s.692.025 1.036.053zm9.074 19.626l3.6 2.055c.378-.574.76-1.215 1.064-1.836l-3.646-2.018c-.293.628-.63 1.232-1.018 1.8zm6.417-6.226c.02-.344.032-.686.032-1.034 0-.35-.012-.69-.033-1.036h-4.16c.027.342.052.687.052 1.036 0 .35-.025.693-.053 1.035h4.16zm-7.41-14.858c-.573-.38-1.205-.74-1.827-1.047l-2.055 3.622c.63.293 1.235.63 1.802 1.02l2.08-3.595z"/>
            <path fill="#90A4AE" d="M15.86 28.38h8.28v2.07h-8.28v-2.07z"/>
            <path fill="none" stroke="#FF1744" stroke-miterlimit="10" d="M20 23.206l12.42-7.245"/>
            <path fill="#FF1744" d="M19.883 20.002c1.683 0 3.047 1.365 3.047 3.045 0 1.685-1.363 3.048-3.047 3.048-1.682 0-3.045-1.363-3.045-3.048 0-1.68 1.363-3.045 3.045-3.045z"/>
        </g>
    </g>
</svg>