<?xml version="1.0" encoding="UTF-8" standalone="no"?>
<svg width="42px" height="42px" viewBox="0 0 42 42" version="1.1" xmlns="http://www.w3.org/2000/svg" xmlns:xlink="http://www.w3.org/1999/xlink" xmlns:sketch="http://www.bohemiancoding.com/sketch/ns">
    <!-- Generator: Sketch 3.4.4 (17249) - http://www.bohemiancoding.com/sketch -->
    <title>media-icon</title>
    <desc>Created with Sketch.</desc>
    <defs></defs>
    <g id="Page-1" stroke="none" stroke-width="1" fill="none" fill-rule="evenodd" sketch:type="MSPage">
        <g id="slr_back_side" sketch:type="MSLayerGroup" transform="translate(0.000000, 2.000000)">
            <path d="M37.8,4.22222222 L29.82,4.22222222 L27.72,1.05555556 C27.3,0.422222222 26.67,0.105555556 25.935,0.105555556 L15.855,0.105555556 C15.12,0.105555556 14.49,0.422222222 14.07,1.05555556 L11.97,4.22222222 L4.2,4.22222222 C1.89,4.22222222 0,6.12222222 0,8.44444444 L0,33.7777778 C0,36.1 1.89,38 4.2,38 L37.8,38 C40.11,38 42,36.1 42,33.7777778 L42,8.44444444 C42,6.12222222 40.11,4.22222222 37.8,4.22222222 L37.8,4.22222222 Z" id="Shape" fill="#5E35B1" sketch:type="MSShapeGroup"></path>
            <path d="M7.35,10.5555556 L28.35,10.5555556 C28.98,10.5555556 29.4,10.9777778 29.4,11.6111111 L29.4,28.5 C29.4,29.1333333 28.98,29.5555556 28.35,29.5555556 L7.35,29.5555556 C6.72,29.5555556 6.3,29.1333333 6.3,28.5 L6.3,11.6111111 C6.3,10.9777778 6.72,10.5555556 7.35,10.5555556 L7.35,10.5555556 Z" id="Shape" fill="#F57C00" sketch:type="MSShapeGroup"></path>
            <path d="M15.645,16.8888889 L8.4,27.4444444 L22.89,27.4444444 L15.645,16.8888889 Z" id="Shape" fill="#942A09" sketch:type="MSShapeGroup"></path>
            <ellipse id="Oval" fill="#FFF9C4" sketch:type="MSShapeGroup" cx="24.15" cy="15.8333333" rx="2.1" ry="2.11111111"></ellipse>
            <path d="M22.26,21.1111111 L17.22,27.4444444 L27.3,27.4444444 L22.26,21.1111111 Z" id="Shape" fill="#BF360C" sketch:type="MSShapeGroup"></path>
            <g id="Group" transform="translate(31.500000, 2.111111)" fill="#8667C4" sketch:type="MSShapeGroup">
                <path d="M0,2.11111111 L6.3,2.11111111 L6.3,1.26666667 C6.3,0.527777778 5.775,0 5.04,0 L1.26,0 C0.525,0 0,0.527777778 0,1.26666667 L0,2.11111111 L0,2.11111111 Z" id="Shape"></path>
                <ellipse id="Oval" cx="4.2" cy="10.5555556" rx="2.1" ry="2.11111111"></ellipse>
                <ellipse id="Oval" cx="4.2" cy="16.8888889" rx="2.1" ry="2.11111111"></ellipse>
                <ellipse id="Oval" cx="4.2" cy="23.2222222" rx="2.1" ry="2.11111111"></ellipse>
            </g>
        </g>
    </g>
</svg>