<?xml version="1.0" encoding="utf-8"?>
<!-- Generator: Adobe Illustrator 13.0.0, SVG Export Plug-In  -->
<!DOCTYPE svg PUBLIC "-//W3C//DTD SVG 1.0//EN" "http://www.w3.org/TR/2001/REC-SVG-20010904/DTD/svg10.dtd" [
	<!ENTITY ns_flows "http://ns.adobe.com/Flows/1.0/">
]>
<svg version="1.0"
	 xmlns="http://www.w3.org/2000/svg" xmlns:xlink="http://www.w3.org/1999/xlink" xmlns:a="http://ns.adobe.com/AdobeSVGViewerExtensions/3.0/"
	 x="0px" y="0px" width="408px" height="71px" viewBox="-5.208 -4.384 408 71" enable-background="new -5.208 -4.384 408 71"
	 xml:space="preserve">
<defs>
</defs>
<path opacity="0.3" fill="#596667" d="M111.401,42.425c-1.112,0-2.896,0.109-4.007,1.986c-0.441,0.744-0.816,1.564-1.631,2.516
	c-1.481,1.727-3.297,3.045-5.44,3.952c-2.146,0.908-4.589,1.36-7.325,1.36c-2.766,0-5.23-0.452-7.385-1.36
	c-2.162-0.907-3.98-2.226-5.462-3.952c-1.485-1.73-2.618-3.84-3.411-6.334c-0.789-2.489-1.185-5.306-1.185-8.444
	c0-3.114,0.396-5.913,1.185-8.406c0.793-2.489,1.926-4.603,3.411-6.33c1.482-1.729,3.3-3.052,5.462-3.976
	c2.155-0.922,4.619-1.383,7.385-1.383c2.736,0,5.179,0.461,7.325,1.383c2.143,0.924,3.959,2.247,5.44,3.976
	c0.716,0.834,1.352,1.757,1.903,2.772c1.064,1.96,3.735,1.726,3.735,1.726h12.112c-0.248-0.817-0.505-1.63-0.817-2.422
	c-1.538-3.918-3.702-7.318-6.497-10.198c-2.794-2.88-6.16-5.148-10.097-6.807C102.163,0.827,97.799,0,92.998,0
	C88.2,0,83.827,0.82,79.876,2.462c-3.951,1.642-7.331,3.902-10.14,6.783c-2.811,2.884-4.981,6.28-6.521,10.197
	c-0.092,0.235-0.173,0.476-0.26,0.713c-0.083-0.222-0.159-0.447-0.247-0.667c-1.562-3.918-3.757-7.318-6.594-10.198
	c-2.835-2.879-6.251-5.147-10.248-6.807c-3.997-1.656-8.428-2.483-13.299-2.483c-4.87,0-9.308,0.819-13.319,2.461
	c-4.01,1.642-7.439,3.903-10.29,6.784c-2.854,2.883-5.056,6.279-6.619,10.196C0.78,23.363,0,27.598,0,32.148
	c0,4.553,0.78,8.787,2.34,12.705c1.563,3.917,3.765,7.324,6.619,10.218c2.851,2.894,6.28,5.162,10.29,6.804
	c4.011,1.643,8.449,2.465,13.319,2.465c4.871,0,9.302-0.822,13.299-2.465c3.997-1.642,7.413-3.91,10.248-6.804
	c2.837-2.894,5.032-6.301,6.594-10.218c0.091-0.228,0.169-0.46,0.255-0.689c0.084,0.229,0.162,0.462,0.251,0.689
	c1.54,3.917,3.71,7.324,6.521,10.218c2.809,2.894,6.189,5.162,10.14,6.804c3.951,1.643,8.324,2.465,13.122,2.465
	c4.801,0,9.165-0.822,13.104-2.465c3.937-1.642,7.303-3.91,10.097-6.804c2.795-2.894,4.959-6.301,6.497-10.218
	c0.312-0.793,0.57-1.609,0.818-2.428H111.401z M48.981,40.593c-0.8,2.494-1.954,4.604-3.458,6.334
	c-1.503,1.727-3.346,3.045-5.521,3.951c-2.178,0.909-4.657,1.361-7.434,1.361c-2.807,0-5.308-0.452-7.496-1.361
	c-2.193-0.906-4.038-2.225-5.543-3.951c-1.506-1.73-2.657-3.84-3.462-6.334c-0.8-2.489-1.202-5.306-1.202-8.445
	c0-3.113,0.402-5.912,1.202-8.405c0.805-2.489,1.956-4.603,3.462-6.329c1.505-1.73,3.35-3.053,5.543-3.977
	c2.188-0.921,4.689-1.382,7.496-1.382c2.777,0,5.256,0.461,7.434,1.382c2.175,0.924,4.018,2.247,5.521,3.977
	c1.504,1.726,2.658,3.84,3.458,6.329c0.802,2.493,1.204,5.292,1.204,8.405C50.185,35.288,49.783,38.104,48.981,40.593z"/>
<path opacity="0.3" fill="#596667" d="M208.964,32.148c0,4.553-0.784,8.787-2.341,12.705c-1.564,3.917-3.761,7.324-6.594,10.218
	c-2.838,2.894-6.252,5.162-10.251,6.804c-3.996,1.643-8.427,2.465-13.299,2.465c-4.87,0-9.307-0.822-13.317-2.465
	c-4.012-1.642-7.442-3.91-10.29-6.804c-2.856-2.894-5.059-6.301-6.62-10.218c-1.56-3.918-2.34-8.152-2.34-12.705
	c0-4.55,0.78-8.785,2.34-12.706c1.561-3.917,3.764-7.313,6.62-10.196c2.848-2.881,6.278-5.142,10.29-6.784
	c4.01-1.642,8.447-2.461,13.317-2.461c4.872,0,9.303,0.827,13.299,2.483c3.999,1.66,7.413,3.928,10.251,6.807
	c2.833,2.88,5.029,6.28,6.594,10.198C208.18,23.406,208.964,27.626,208.964,32.148 M194.097,32.148c0-3.113-0.401-5.912-1.202-8.405
	c-0.8-2.489-1.954-4.603-3.458-6.329c-1.504-1.73-3.347-3.053-5.521-3.977c-2.179-0.921-4.658-1.382-7.436-1.382
	c-2.806,0-5.306,0.461-7.494,1.382c-2.195,0.924-4.04,2.247-5.544,3.977c-1.506,1.726-2.658,3.84-3.462,6.329
	c-0.8,2.493-1.203,5.292-1.203,8.405c0,3.14,0.403,5.956,1.203,8.445c0.804,2.494,1.956,4.604,3.462,6.334
	c1.504,1.727,3.349,3.045,5.544,3.951c2.188,0.909,4.688,1.361,7.494,1.361c2.778,0,5.257-0.452,7.436-1.361
	c2.174-0.906,4.017-2.225,5.521-3.951c1.504-1.73,2.658-3.84,3.458-6.334C193.696,38.104,194.097,35.288,194.097,32.148"/>
<path opacity="0.3" fill="#596667" d="M210.603,63.648V0.69h23.159c4.351,0,8.053,0.405,11.104,1.21
	c3.053,0.808,5.546,1.944,7.475,3.415c1.931,1.468,3.334,3.255,4.214,5.358c0.878,2.103,1.319,4.452,1.319,7.044
	c0,1.41-0.204,2.77-0.606,4.082c-0.404,1.312-1.036,2.542-1.902,3.696c-0.864,1.15-1.971,2.193-3.326,3.133
	c-1.354,0.935-2.982,1.748-4.885,2.44c4.151,1.01,7.217,2.645,9.208,4.906c1.985,2.262,2.979,5.161,2.979,8.705
	c0,2.676-0.519,5.17-1.556,7.473c-1.037,2.307-2.558,4.314-4.557,6.031c-2.004,1.713-4.474,3.053-7.412,4.016
	c-2.938,0.967-6.294,1.449-10.069,1.449H210.603z M225.208,27.178h7.604c1.612,0,3.066-0.114,4.365-0.343
	c1.294-0.232,2.397-0.633,3.306-1.21c0.907-0.577,1.596-1.369,2.074-2.378c0.476-1.009,0.71-2.275,0.71-3.804
	c0-1.494-0.185-2.742-0.56-3.738c-0.375-0.991-0.952-1.79-1.73-2.398c-0.775-0.605-1.765-1.034-2.958-1.294
	c-1.197-0.26-2.614-0.39-4.256-0.39h-8.555V27.178z M225.208,36.944V52.63h10.279c1.931,0,3.511-0.246,4.735-0.734
	c1.224-0.492,2.183-1.126,2.872-1.902c0.692-0.777,1.166-1.656,1.426-2.639c0.259-0.977,0.389-1.971,0.389-2.978
	c0-1.153-0.15-2.19-0.452-3.112c-0.302-0.921-0.82-1.698-1.554-2.334c-0.736-0.634-1.711-1.123-2.921-1.471
	c-1.21-0.344-2.735-0.517-4.578-0.517H225.208z"/>
<polygon opacity="0.3" fill="#596667" points="301.985,0.689 301.985,11.924 276.144,11.924 276.144,26.616 295.934,26.616 
	295.934,37.419 276.144,37.419 276.144,52.412 301.985,52.412 301.985,63.647 261.454,63.647 261.454,0.689 "/>
<path opacity="0.3" fill="#596667" d="M319.388,40.358v23.29h-14.604V0.689h20.481c4.549,0,8.431,0.472,11.646,1.407
	c3.211,0.936,5.835,2.24,7.862,3.91c2.032,1.672,3.506,3.643,4.433,5.919c0.919,2.275,1.38,4.753,1.38,7.434
	c0,2.046-0.274,3.973-0.823,5.787c-0.543,1.815-1.36,3.496-2.438,5.036c-1.08,1.54-2.406,2.915-3.975,4.126
	c-1.572,1.211-3.38,2.203-5.426,2.98c0.98,0.492,1.896,1.098,2.745,1.814c0.848,0.721,1.592,1.6,2.229,2.637l13.393,21.908h-13.221
	c-2.451,0-4.207-0.922-5.272-2.764l-10.457-18.279c-0.461-0.809-1.003-1.382-1.622-1.73c-0.617-0.344-1.491-0.517-2.611-0.517
	H319.388z M319.388,30.291h5.877c1.985,0,3.679-0.253,5.076-0.756c1.397-0.506,2.544-1.203,3.437-2.097
	c0.894-0.892,1.54-1.937,1.944-3.131c0.4-1.197,0.606-2.487,0.606-3.869c0-2.764-0.902-4.927-2.702-6.48
	c-1.8-1.558-4.588-2.335-8.361-2.335h-5.877V30.291z"/>
<path opacity="0.3" fill="#596667" d="M127.329,0.689v25.243h-16.043c-1.452,0-2.628,1.128-2.628,2.517v7.438
	c0,1.392,1.176,2.519,2.628,2.519h16.043v25.241h14.604V0.689H127.329z"/>
<path opacity="0.3" fill="#DB6B26" d="M400.482,30.821c-1.021-16.438-19.171-30.662-26.648-30.819
	c-7.479-0.159-21.459,17.25-22.024,34.938c-0.53,16.585,13.818,27.958,19.996,29.401c0.172-7.803,0.805-36.532,0.911-39.882
	c0.223-6.846,0.563-17.498,1.723-17.852c0.665-0.203,1.571,5.785,1.46,9.324c-0.023,0.675-0.031,2.862-0.031,5.966
	c1.251-1.255,2.558-2.558,3.352-3.328c2.177-2.11,3.14-1.859,2.096,0.023c-0.643,1.158-3.408,5.008-5.441,7.798
	c0.012,5.627,0.037,12.709,0.064,19.309c2.871-3.315,6.386-7.289,8.232-9.057c3.872-3.702,4.284-3.235,2.455,0.651
	c-1.123,2.382-6.614,8.736-10.668,13.747c0.025,5.855,0.045,10.778,0.05,13.129C386.88,61.81,401.481,46.96,400.482,30.821"/>
</svg>
