<?xml version="1.0" encoding="utf-8"?>
<!-- Generator: Adobe Illustrator 13.0.0, SVG Export Plug-In . SVG Version: 6.00 Build 14948)  -->
<!DOCTYPE svg PUBLIC "-//W3C//DTD SVG 1.1//EN" "http://www.w3.org/Graphics/SVG/1.1/DTD/svg11.dtd">
<svg version="1.1" id="Layer_1" xmlns="http://www.w3.org/2000/svg" xmlns:xlink="http://www.w3.org/1999/xlink" x="0px" y="0px"
	 width="1124.208px" height="5510.614px" viewBox="0 0 1124.208 5510.614" enable-background="new 0 0 1124.208 5510.614"
	 xml:space="preserve">
<rect x="-364.849" y="-224.245" display="none" fill="#E85E00" stroke="#FFFFFF" width="1961.607" height="6004.805"/>
<path fill="#808C8D" d="M800.292,278.688L534.984,14.016C525.984,5.04,513.792,0,501.084,0H48C21.492,0,0,21.492,0,48v950.4
	c0,26.508,21.492,48,48,48h718.405c26.508,0,48-21.492,48-48V312.672C814.405,299.916,809.317,287.7,800.292,278.688z
	 M717.493,331.692H478.02V96h3.229L717.493,331.692z M96,950.4V96h286.02v283.692c0,26.508,21.492,48,48,48h288.372V950.4H96z"/>
<g>
	<path fill="none" d="M430.02,1953.18c-26.508,0-48-21.492-48-48v-283.691H297v653.4v0.012h421.405V1953.18H430.02z"/>
	<path fill="none" d="M534.984,1539.504l48.047,47.93v-166.945H297v105h204.084C513.792,1525.489,525.984,1530.528,534.984,1539.504
		z"/>
	<path fill="none" d="M814.405,1838.135v436.766h105V1752.18H748.18l52.123,51.996
		C809.329,1813.188,814.405,1825.405,814.405,1838.135z"/>
	<polygon fill="none" points="679.032,1420.489 679.032,1656.18 918.493,1656.18 682.249,1420.489 	"/>
	<path fill="none" d="M201,2322.889v-701.4H96v854.4v0.012h622.405v-105.012H249C222.492,2370.889,201,2349.397,201,2322.889z"/>
	<path fill="none" d="M591.709,1731.691l-110.46-110.202h-3.229v235.691h239.473l-113.875-113.609
		C598.985,1740.34,594.951,1736.316,591.709,1731.691z"/>
	<path fill="#95A5A6" d="M718.405,2475.901H96v-0.012v-854.4h105v-96H48c-26.508,0-48,21.492-48,48v950.387
		c0,26.508,21.492,48,48,48h718.405c26.508,0,48-21.492,48-48v-152.986h-96V2475.901z"/>
	<path fill="#808C8D" d="M297,2274.889v-653.4h-96v701.4c0,26.508,21.492,48,48,48h469.405v-95.988H297V2274.889z"/>
	<path fill="#808C8D" d="M1001.303,1603.176l-265.307-264.672c-9-8.977-21.193-14.016-33.889-14.016H249c-26.508,0-48,21.492-48,48
		v153h96v-105h286.032v166.945L748.18,1752.18h171.225v522.721h-105v95.988h153c26.508,0,48-21.492,48-48v-685.73
		C1015.405,1624.405,1010.329,1612.188,1001.303,1603.176z M679.032,1656.18v-235.691h3.217l236.244,235.691H679.032z"/>
	<path fill="#808C8D" d="M603.618,1743.571l-11.908-11.88C594.951,1736.316,598.985,1740.34,603.618,1743.571z"/>
	<rect x="718.405" y="2274.901" fill="#808C8D" width="96" height="95.988"/>
	<path fill="#808C8D" d="M591.709,1731.691l11.908,11.88c7.773,5.421,17.219,8.609,27.414,8.609H748.18l-165.148-164.746v116.746
		C583.032,1714.417,586.248,1723.899,591.709,1731.691z"/>
	<rect x="201" y="1525.489" fill="#808C8D" width="96" height="96"/>
</g>
<path fill="#FFFFFF" d="M800.292,3221.818l-265.307-264.672c-9-8.977-21.193-14.017-33.9-14.017H48c-26.508,0-48,21.492-48,48
	v950.401c0,26.508,21.492,48,48,48h718.404c26.508,0,48-21.492,48-48v-685.729C814.405,3243.045,809.317,3230.83,800.292,3221.818z
	 M717.493,3274.822H478.02v-235.692h3.229L717.493,3274.822z M96,3893.531v-854.401h286.02v283.692c0,26.508,21.492,48,48,48
	h288.371v522.709H96z"/>
<path fill="none" d="M430.02,4906.177c-26.508,0-48-21.492-48-48v-283.691H297v653.4v0.012h421.405v-321.721H430.02z"/>
<path fill="none" d="M534.985,4492.501l48.046,47.93v-166.945H297v105h204.085C513.792,4478.486,525.985,4483.525,534.985,4492.501z
	"/>
<path fill="none" d="M814.405,4791.132v436.766h105v-522.721H748.18l52.123,51.996
	C809.329,4766.185,814.405,4778.402,814.405,4791.132z"/>
<polygon fill="none" points="679.032,4373.486 679.032,4609.177 918.493,4609.177 682.249,4373.486 "/>
<path fill="none" d="M201,5275.886v-701.4H96v854.4v0.012h622.405v-105.012H249C222.492,5323.886,201,5302.394,201,5275.886z"/>
<path fill="none" d="M591.709,4684.688l-110.46-110.202h-3.229v235.691h239.472l-113.875-113.609
	C598.985,4693.337,594.952,4689.313,591.709,4684.688z"/>
<path fill="#FFFFFF" d="M718.405,5428.898H96v-0.012v-854.4h105v-96H48c-26.508,0-48,21.492-48,48v950.387c0,26.508,21.492,48,48,48
	h718.405c26.508,0,48-21.492,48-48v-152.986h-96V5428.898z"/>
<path fill="#FFFFFF" d="M297,5227.886v-653.4h-96v701.4c0,26.508,21.492,48,48,48h469.405v-95.988H297V5227.886z"/>
<path fill="#FFFFFF" d="M1001.303,4556.173l-265.307-264.672c-9-8.977-21.193-14.016-33.889-14.016H249c-26.508,0-48,21.492-48,48
	v153h96v-105h286.032v166.945l165.148,164.746h171.225v522.721h-105v95.988h153c26.508,0,48-21.492,48-48v-685.73
	C1015.405,4577.402,1010.329,4565.185,1001.303,4556.173z M679.032,4609.177v-235.691h3.217l236.244,235.691H679.032z"/>
<path fill="#808C8D" d="M603.618,4696.568l-11.908-11.88C594.952,4689.313,598.985,4693.337,603.618,4696.568z"/>
<rect x="718.405" y="5227.898" fill="#FFFFFF" width="96" height="95.988"/>
<path fill="#FFFFFF" d="M591.709,4684.688l11.908,11.88c7.773,5.421,17.219,8.609,27.414,8.609H748.18l-165.148-164.746v116.746
	C583.032,4667.415,586.249,4676.896,591.709,4684.688z"/>
<rect x="201" y="4478.486" fill="#FFFFFF" width="96" height="96"/>
</svg>
