<?xml version="1.0" standalone="no"?>
<!DOCTYPE svg PUBLIC "-//W3C//DTD SVG 1.1//EN" "http://www.w3.org/Graphics/SVG/1.1/DTD/svg11.dtd" >
<svg xmlns="http://www.w3.org/2000/svg">
<metadata>Generated by IcoMoon</metadata>
<defs>
<font id="fontautumn-webfont" horiz-adv-x="1024">
<font-face units-per-em="1024" ascent="960" descent="-64" />
<missing-glyph horiz-adv-x="1024" />
<glyph unicode="&#x20;" d="" horiz-adv-x="512" />
<glyph unicode="&#xe600;" d="M93.882 380.209h371.66v464.575h-371.66v-464.575zM93.882 8.549h371.66v278.744h-371.66v-278.744zM558.458 8.549h371.66v464.575h-371.66v-464.575zM558.458 844.785v-278.744h371.66v278.744h-371.66z" />
<glyph unicode="&#xe601;" d="M512 844.785c-230.894 0-418.118-187.224-418.118-418.118s187.224-418.118 418.118-418.118c38.56 0 69.687 31.127 69.687 69.687 0 18.118-6.737 34.378-18.118 46.689-10.918 12.312-17.422 28.34-17.422 46.225 0 38.56 31.127 69.687 69.687 69.687h81.998c128.223 0 232.287 104.064 232.287 232.287 0 205.342-187.224 371.66-418.118 371.66zM256.483 426.667c-38.56 0-69.687 31.127-69.687 69.687s31.127 69.687 69.687 69.687 69.687-31.127 69.687-69.687-31.127-69.687-69.687-69.687zM395.856 612.497c-38.56 0-69.687 31.127-69.687 69.687s31.127 69.687 69.687 69.687 69.687-31.127 69.687-69.687-31.127-69.687-69.687-69.687zM628.144 612.497c-38.56 0-69.687 31.127-69.687 69.687s31.127 69.687 69.687 69.687 69.687-31.127 69.687-69.687-31.127-69.687-69.687-69.687zM767.517 426.667c-38.56 0-69.687 31.127-69.687 69.687s31.127 69.687 69.687 69.687 69.687-31.127 69.687-69.687-31.127-69.687-69.687-69.687z" />
<glyph unicode="&#xe602;" d="M279.713 333.753c-76.887 0-139.372-62.486-139.372-139.372 0-60.859-53.659-92.914-92.914-92.914 42.741-56.678 115.911-92.914 185.83-92.914 102.671 0 185.83 83.159 185.83 185.83 0 76.887-62.486 139.372-139.372 139.372zM916.411 769.058l-62.021 62.021c-18.118 18.118-47.618 18.118-65.737 0l-416.026-416.026 127.757-127.757 416.026 416.026c18.351 18.351 18.351 47.618 0 65.737z" />
<glyph unicode="&#xe603;" d="M930.118 147.923v-46.458c0-51.336-41.579-92.914-92.914-92.914h-650.404c-51.336 0-92.914 41.579-92.914 92.914v650.404c0 51.336 41.579 92.914 92.914 92.914h650.404c51.336 0 92.914-41.579 92.914-92.914v-46.458h-418.118c-51.336 0-92.914-41.579-92.914-92.914v-371.66c0-51.336 41.579-92.914 92.914-92.914h418.118zM512 240.837h464.575v371.66h-464.575v-371.66zM697.83 356.98c-38.56 0-69.687 31.127-69.687 69.687s31.127 69.687 69.687 69.687 69.687-31.127 69.687-69.687-31.127-69.687-69.687-69.687z" />
<glyph unicode="&#xe604;" d="M140.34 519.581v-325.203h139.372v325.203h-139.372zM419.086 519.581v-325.203h139.372v325.203h-139.372zM47.425-37.908h882.692v139.372h-882.692v-139.372zM697.83 519.581v-325.203h139.372v325.203h-139.372zM488.771 937.699l-441.345-232.287v-92.914h882.692v92.914l-441.345 232.287z" />
<glyph unicode="&#xe605;" d="M93.882 751.87v-650.404c0-51.336 41.579-92.914 92.914-92.914h650.404c51.336 0 92.914 41.579 92.914 92.914v650.404c0 51.336-41.579 92.914-92.914 92.914h-650.404c-51.336 0-92.914-41.579-92.914-92.914zM651.372 566.039c0-77.119-62.486-139.372-139.372-139.372s-139.372 62.253-139.372 139.372c0 76.887 62.486 139.372 139.372 139.372s139.372-62.486 139.372-139.372zM233.256 194.38c0 92.914 185.83 144.019 278.744 144.019s278.744-51.103 278.744-144.019v-46.458h-557.49v46.458z" />
<glyph unicode="&#xe606;" d="M512 426.667c102.671 0 185.83 83.392 185.83 185.83 0 102.671-83.159 185.83-185.83 185.83s-185.83-83.159-185.83-185.83c0-102.438 83.159-185.83 185.83-185.83zM512 333.753c-123.81 0-371.66-62.021-371.66-185.83v-92.914h743.32v92.914c0 123.81-247.851 185.83-371.66 185.83z" />
<glyph unicode="&#xe607;" d="M512 891.242c-256.677 0-464.575-207.896-464.575-464.575s207.896-464.575 464.575-464.575 464.575 207.896 464.575 464.575-207.896 464.575-464.575 464.575zM512 751.87c76.887 0 139.372-62.486 139.372-139.372 0-77.119-62.486-139.372-139.372-139.372s-139.372 62.253-139.372 139.372c0 76.887 62.486 139.372 139.372 139.372zM512 92.173c-116.376 0-218.583 59.465-278.744 149.593 1.161 92.217 186.063 143.089 278.744 143.089s277.351-50.871 278.744-143.089c-60.162-90.127-162.368-149.593-278.744-149.593z" />
<glyph unicode="&#xe608;" d="M651.372 426.667c102.671 0 185.83 83.392 185.83 185.83 0 102.671-83.159 185.83-185.83 185.83s-185.83-83.159-185.83-185.83c0-102.438 83.159-185.83 185.83-185.83zM233.256 519.581v139.372h-92.914v-139.372h-139.372v-92.914h139.372v-139.372h92.914v139.372h139.372v92.914h-139.372zM651.372 333.753c-123.81 0-371.66-62.021-371.66-185.83v-92.914h743.32v92.914c0 123.81-247.851 185.83-371.66 185.83z" />
<glyph unicode="&#xe609;" d="M512 710.058c53.89 0 97.561-43.671 97.561-97.561s-43.671-97.561-97.561-97.561-97.561 43.671-97.561 97.561 43.671 97.561 97.561 97.561zM512 291.94c138.211 0 283.391-67.595 283.391-97.561v-51.103h-566.781v51.103c0 29.966 145.179 97.561 283.391 97.561zM512 798.327c-102.671 0-185.83-83.159-185.83-185.83 0-102.438 83.159-185.83 185.83-185.83s185.83 83.392 185.83 185.83c0 102.671-83.159 185.83-185.83 185.83zM512 380.209c-123.81 0-371.66-62.021-371.66-185.83v-139.372h743.32v139.372c0 123.81-247.851 185.83-371.66 185.83z" />
<glyph unicode="&#xe60a;" d="M581.687 357.446c0-38.487-31.2-69.687-69.687-69.687s-69.687 31.2-69.687 69.687c0 38.487 31.2 69.687 69.687 69.687s69.687-31.2 69.687-69.687zM512 891.242c-256.445 0-464.575-208.13-464.575-464.575s208.13-464.575 464.575-464.575 464.575 208.13 464.575 464.575-208.13 464.575-464.575 464.575zM512 775.098c57.607 0 104.529-46.922 104.529-104.529s-46.922-104.529-104.529-104.529-104.529 46.922-104.529 104.529 46.922 104.529 104.529 104.529zM744.287 284.507v-116.144c-20.906-19.048-44.599-35.771-69.687-48.781v31.59c0 15.796-7.897 30.197-21.37 42.741-30.197 28.803-87.805 47.386-141.231 47.386-44.599 0-91.057-13.008-123.113-33.914l-7.897-5.575-9.757-7.897c36.237-21.835 75.726-33.45 118.002-38.095l61.789-6.968c17.189-1.858 30.662-16.725 30.662-34.843 0-13.472-7.434-24.622-18.583-30.662-13.008-6.968-29.733-4.181-44.134-4.181-16.259 0-32.056 0.465-47.852 2.323-23.229 2.787-45.993 7.897-67.827 15.331-22.765 7.434-45.064 17.654-65.97 29.733-10.221 6.040-20.441 12.544-30.197 19.977l-14.402 11.15c-1.858 0.929-13.008 8.362-13.008 10.685v198.838c0 73.402 122.183 129.151 232.287 129.151s232.287-55.749 232.287-129.151v-82.695z" />
<glyph unicode="&#xe60b;" d="M976.575 718.42l-213.472 179.093-59.698-71.080 213.472-179.093 59.698 71.080zM320.595 826.666l-59.698 71.080-213.472-179.093 59.698-71.080 213.472 179.093zM535.229 612.497h-69.687v-278.744l220.44-132.635 35.075 57.375-185.83 110.105v243.902zM511.768 798.327c-231.126 0-417.885-187.224-417.885-418.118s186.759-418.118 417.885-418.118 418.349 187.224 418.349 418.118-187.224 418.118-418.349 418.118zM512 55.007c-179.559 0-325.203 145.645-325.203 325.203s145.645 325.203 325.203 325.203 325.203-145.645 325.203-325.203-145.412-325.203-325.203-325.203z" />
<glyph unicode="&#xe60c;" d="M320.595 826.666l-59.698 71.080-213.472-179.093 59.698-71.080 213.472 179.093zM976.575 718.42l-213.472 179.093-59.698-71.080 213.472-179.093 59.698 71.080zM511.768 798.327c-231.126 0-417.885-187.224-417.885-418.118s186.759-418.118 417.885-418.118 418.349 187.224 418.349 418.118-187.224 418.118-418.349 418.118zM512 55.007c-179.559 0-325.203 145.645-325.203 325.203s145.645 325.203 325.203 325.203 325.203-145.645 325.203-325.203-145.412-325.203-325.203-325.203zM558.458 566.039h-92.914v-139.372h-139.372v-92.914h139.372v-139.372h92.914v139.372h139.372v92.914h-139.372v139.372z" />
<glyph unicode="&#xe60d;" d="M512 705.411c179.559 0 325.203-145.645 325.203-325.203 0-39.257-7.201-76.655-19.977-111.498l70.615-70.615c26.946 55.052 42.277 116.841 42.277 182.113 0 230.894-187.224 418.118-418.349 418.118-65.273 0-126.829-15.331-182.113-42.044l70.848-70.848c34.843 12.775 72.242 19.977 111.498 19.977zM976.575 718.42l-213.472 179.093-59.698-71.080 213.472-179.093 59.698 71.080zM90.167 877.536l-59.233-59.001 61.789-61.789-51.568-43.205 65.97-65.97 51.568 43.205 37.166-37.166c-63.414-73.402-101.974-168.872-101.974-273.402 0-230.894 186.759-418.118 417.885-418.118 104.761 0 200.231 38.792 273.402 102.207l102.207-102.207 59.001 59.233-856.211 856.211zM719.665 129.804c-56.446-46.689-128.688-74.797-207.665-74.797-179.559 0-325.203 145.645-325.203 325.203 0 78.978 28.106 151.219 74.797 207.665l458.070-458.070zM326.867 832.009l-65.97 65.97-39.489-33.217 65.97-65.97 39.489 33.217z" />
<glyph unicode="&#xe60e;" d="M976.575 718.42l-213.472 179.093-59.698-71.080 213.472-179.093 59.698 71.080zM320.595 826.666l-59.698 71.080-213.472-179.093 59.698-71.080 213.472 179.093zM511.768 798.327c-231.126 0-417.885-187.224-417.885-418.118s186.759-418.118 417.885-418.118 418.349 187.224 418.349 418.118-187.224 418.118-418.349 418.118zM512 55.007c-179.559 0-325.203 145.645-325.203 325.203s145.645 325.203 325.203 325.203 325.203-145.645 325.203-325.203-145.412-325.203-325.203-325.203zM443.939 309.362l-98.49 98.49-49.245-49.245 147.735-147.735 278.977 278.977-49.245 49.245-229.732-229.732z" />
<glyph unicode="&#xe60f;" d="M790.744 612.497h-46.458v92.914c0 128.223-104.064 232.287-232.287 232.287s-232.287-104.064-232.287-232.287v-92.914h-46.458c-51.336 0-92.914-41.579-92.914-92.914v-464.575c0-51.336 41.579-92.914 92.914-92.914h557.49c51.336 0 92.914 41.579 92.914 92.914v464.575c0 51.336-41.579 92.914-92.914 92.914zM512 194.38c-51.336 0-92.914 41.579-92.914 92.914s41.579 92.914 92.914 92.914 92.914-41.579 92.914-92.914-41.579-92.914-92.914-92.914zM656.019 612.497h-288.035v92.914c0 79.442 64.577 144.019 144.019 144.019s144.019-64.577 144.019-144.019v-92.914z" />
<glyph unicode="&#xe610;" d="M512 194.38c51.336 0 92.914 41.579 92.914 92.914s-41.579 92.914-92.914 92.914-92.914-41.579-92.914-92.914 41.579-92.914 92.914-92.914zM790.744 612.497h-46.458v92.914c0 128.223-104.064 232.287-232.287 232.287s-232.287-104.064-232.287-232.287h88.27c0 79.442 64.577 144.019 144.019 144.019s144.019-64.577 144.019-144.019v-92.914h-422.763c-51.336 0-92.914-41.579-92.914-92.914v-464.575c0-51.336 41.579-92.914 92.914-92.914h557.49c51.336 0 92.914 41.579 92.914 92.914v464.575c0 51.336-41.579 92.914-92.914 92.914zM790.744 55.007h-557.49v464.575h557.49v-464.575z" />
<glyph unicode="&#xe611;" d="M790.744 612.497h-46.458v92.914c0 128.223-104.064 232.287-232.287 232.287s-232.287-104.064-232.287-232.287v-92.914h-46.458c-51.336 0-92.914-41.579-92.914-92.914v-464.575c0-51.336 41.579-92.914 92.914-92.914h557.49c51.336 0 92.914 41.579 92.914 92.914v464.575c0 51.336-41.579 92.914-92.914 92.914zM512 849.43c79.442 0 144.019-64.577 144.019-144.019v-92.914h-283.391v92.914h-4.647c0 79.442 64.577 144.019 144.019 144.019zM790.744 55.007h-557.49v464.575h557.49v-464.575zM512 194.38c51.336 0 92.914 41.579 92.914 92.914s-41.579 92.914-92.914 92.914-92.914-41.579-92.914-92.914 41.579-92.914 92.914-92.914z" />
<glyph unicode="&#xe612;" d="M140.34 798.327h325.203v92.914h-325.203c-51.336 0-92.914-41.579-92.914-92.914v-325.203h92.914v325.203zM419.086 380.209l-185.83-232.287h557.49l-139.372 185.83-94.309-125.9-137.979 172.357zM744.287 589.268c0 38.56-31.127 69.687-69.687 69.687s-69.687-31.127-69.687-69.687 31.127-69.687 69.687-69.687 69.687 31.127 69.687 69.687zM883.66 891.242h-325.203v-92.914h325.203v-325.203h92.914v325.203c0 51.336-41.579 92.914-92.914 92.914zM883.66 55.007h-325.203v-92.914h325.203c51.336 0 92.914 41.579 92.914 92.914v325.203h-92.914v-325.203zM140.34 380.209h-92.914v-325.203c0-51.336 41.579-92.914 92.914-92.914h325.203v92.914h-325.203v325.203z" />
<glyph unicode="&#xe613;" d="M948.297 87.325v678.682c0 53.568-43.387 96.954-96.954 96.954h-678.682c-53.568 0-96.954-43.387-96.954-96.954v-678.682c0-53.568 43.387-96.954 96.954-96.954h678.682c53.568 0 96.954 43.387 96.954 96.954zM342.329 353.95l121.194-145.674 169.671 218.39 218.149-290.863h-678.682l169.671 218.149z" />
<glyph unicode="&#xe614;" d="M604.914 705.411l-174.216-232.287 132.404-176.538-74.332-55.749c-78.513 104.529-209.059 278.744-209.059 278.744l-278.744-371.66h1022.065l-418.118 557.49z" />
<glyph unicode="&#xe615;" d="M790.744 891.242h-557.49c-51.336 0-92.914-41.579-92.914-92.914v-743.32c0-51.336 41.579-92.914 92.914-92.914h557.49c51.336 0 92.914 41.579 92.914 92.914v743.32c0 51.336-41.579 92.914-92.914 92.914zM233.256 798.327h232.287v-371.66l-116.144 69.687-116.144-69.687v371.66zM233.256 101.464l139.372 179.093 99.651-119.629 139.372 179.559 179.093-239.023h-557.49z" />
<glyph unicode="&#xe616;" d="M976.575 240.837v557.49c0 51.336-41.579 92.914-92.914 92.914h-557.49c-51.336 0-92.914-41.579-92.914-92.914v-557.49c0-51.336 41.579-92.914 92.914-92.914h557.49c51.336 0 92.914 41.579 92.914 92.914zM465.542 426.667l94.309-125.9 137.979 172.357 185.83-232.287h-557.49l139.372 185.83zM47.425 705.411v-650.404c0-51.336 41.579-92.914 92.914-92.914h650.404v92.914h-650.404v650.404h-92.914z" />
<glyph unicode="&#xe617;" d="M512 415.052c57.607 0 104.529 46.689 104.529 104.529 0 57.607-46.922 104.529-104.529 104.529s-104.529-46.922-104.529-104.529c0-57.84 46.922-104.529 104.529-104.529zM721.059 229.223c0 69.687-139.372 104.529-209.059 104.529s-209.059-34.843-209.059-104.529v-34.843h418.118v34.843zM837.203 844.785h-650.404c-51.336 0-92.914-41.579-92.914-92.914v-650.404c0-51.336 41.579-92.914 92.914-92.914h650.404c51.336 0 92.914 41.579 92.914 92.914v650.404c0 51.336-41.579 92.914-92.914 92.914zM837.203 101.464h-650.404v650.404h650.404v-650.404z" />
<glyph unicode="&#xe618;" d="M660.663 426.667c0-82.104-66.559-148.663-148.663-148.663s-148.663 66.559-148.663 148.663c0 82.104 66.559 148.663 148.663 148.663s148.663-66.559 148.663-148.663zM372.628 891.242l-85.017-92.914h-147.27c-51.336 0-92.914-41.579-92.914-92.914v-557.49c0-51.336 41.579-92.914 92.914-92.914h743.32c51.336 0 92.914 41.579 92.914 92.914v557.49c0 51.336-41.579 92.914-92.914 92.914h-147.27l-85.017 92.914h-278.744zM512 194.38c-128.223 0-232.287 104.064-232.287 232.287s104.064 232.287 232.287 232.287 232.287-104.064 232.287-232.287-104.064-232.287-232.287-232.287z" />
<glyph unicode="&#xe619;" d="M837.203 844.785h-650.404c-51.336 0-92.914-41.579-92.914-92.914v-650.404c0-51.336 41.579-92.914 92.914-92.914h650.404c51.336 0 92.914 41.579 92.914 92.914v650.404c0 51.336-41.579 92.914-92.914 92.914zM186.797 752.333h139.372c0-76.887-62.486-139.838-139.372-139.838v139.838zM186.797 426.667v92.914c128.223 0 232.287 104.529 232.287 232.752h92.914c0-179.559-145.645-325.666-325.203-325.666zM186.797 147.923l162.601 209.059 116.144-139.604 162.601 209.29 209.059-278.744h-650.404z" />
<glyph unicode="&#xe61a;" d="M511.768 891.242c-256.677 0-464.342-207.896-464.342-464.575s207.665-464.575 464.342-464.575c256.677 0 464.807 207.896 464.807 464.575s-208.13 464.575-464.807 464.575zM833.485 612.497h-137.049c-15.099 58.072-36.237 113.821-64.111 165.388 85.482-29.269 156.562-88.502 201.161-165.388zM512 796.701c38.792-55.749 68.99-117.77 88.733-184.203h-177.467c19.744 66.434 49.942 128.454 88.733 184.203zM152.419 333.753c-7.665 29.733-12.078 60.859-12.078 92.914s4.413 63.183 12.078 92.914h156.794c-3.716-30.43-6.271-61.324-6.271-92.914s2.555-62.486 6.504-92.914h-157.026zM190.282 240.837h137.049c15.099-58.072 36.237-113.821 64.111-165.621-85.482 29.269-156.562 88.733-201.161 165.621zM327.331 612.497h-137.049c44.599 76.887 115.679 136.353 201.161 165.621-27.874-51.799-49.012-107.548-64.111-165.621zM512 56.633c-38.56 55.749-68.758 117.77-88.733 184.203h177.467c-19.977-66.434-50.174-128.454-88.733-184.203zM620.711 333.753h-217.421c-4.413 30.43-7.434 61.324-7.434 92.914s3.020 62.486 7.434 92.914h217.421c4.413-30.43 7.434-61.324 7.434-92.914s-3.020-62.486-7.434-92.914zM632.557 75.449c27.874 51.799 49.012 107.317 64.111 165.388h137.049c-44.831-76.887-115.911-136.12-201.161-165.388zM714.555 333.753c3.716 30.43 6.504 61.324 6.504 92.914s-2.555 62.486-6.504 92.914h156.794c7.665-29.733 12.312-60.859 12.312-92.914s-4.413-63.183-12.312-92.914h-156.794z" />
<glyph unicode="&#xe61b;" d="M976.575 798.327v23.229c0 64.111-52.033 116.144-116.144 116.144s-116.144-52.033-116.144-116.144v-23.229c-25.784 0-46.458-20.906-46.458-46.458v-185.83c0-25.552 20.674-46.458 46.458-46.458h232.287c25.784 0 46.458 20.906 46.458 46.458v185.83c0 25.552-20.674 46.458-46.458 46.458zM939.409 798.327h-157.955v23.229c0 43.671 35.308 78.978 78.978 78.978s78.978-35.308 78.978-78.978v-23.229zM833.718 426.667c1.858-15.331 3.484-30.662 3.484-46.458 0-96.632-37.166-184.437-97.793-250.638-11.847 37.631-46.689 64.808-88.036 64.808h-46.458v139.372c0 25.552-20.906 46.458-46.458 46.458h-278.744v92.914h92.914c25.552 0 46.458 20.906 46.458 46.458v92.914h92.914c51.336 0 92.914 41.579 92.914 92.914v118.002c-43.902 13.938-90.824 21.37-139.372 21.37-256.677 0-464.575-207.896-464.575-464.575s207.896-464.575 464.575-464.575 464.575 207.896 464.575 464.575c0 15.796-0.929 31.127-2.323 46.458h-94.077zM419.086 11.802c-183.274 22.765-325.203 178.862-325.203 368.408 0 28.571 3.484 56.446 9.757 83.159l222.531-222.531v-46.458c0-51.336 41.579-92.914 92.914-92.914v-89.663z" />
<glyph unicode="&#xe61c;" d="M512 891.242c-256.677 0-464.575-207.896-464.575-464.575s207.896-464.575 464.575-464.575 464.575 207.896 464.575 464.575-207.896 464.575-464.575 464.575zM465.542 58.259c-183.274 22.765-325.203 178.862-325.203 368.408 0 28.571 3.484 56.446 9.757 83.159l222.531-222.531v-46.458c0-51.336 41.579-92.914 92.914-92.914v-89.663zM785.867 176.029c-11.847 37.631-46.689 64.808-88.036 64.808h-46.458v139.372c0 25.552-20.906 46.458-46.458 46.458h-278.744v92.914h92.914c25.552 0 46.458 20.906 46.458 46.458v92.914h92.914c51.336 0 92.914 41.579 92.914 92.914v19.28c136.12-55.052 232.287-188.384 232.287-344.481 0-96.632-37.166-184.437-97.793-250.638z" />
<glyph unicode="&#xe61d;" d="M697.83 473.125c76.887 0 138.908 62.486 138.908 139.372s-62.021 139.372-138.908 139.372c-76.887 0-139.372-62.486-139.372-139.372s62.486-139.372 139.372-139.372zM326.17 473.125c76.887 0 138.908 62.486 138.908 139.372s-62.021 139.372-138.908 139.372c-76.887 0-139.372-62.486-139.372-139.372s62.486-139.372 139.372-139.372zM326.17 380.209c-108.479 0-325.203-54.355-325.203-162.601v-116.144h650.404v116.144c0 108.245-216.724 162.601-325.203 162.601zM697.83 380.209c-13.472 0-28.571-0.929-44.831-2.555 53.89-38.792 91.289-91.057 91.289-160.047v-116.144h278.744v116.144c0 108.245-216.724 162.601-325.203 162.601z" />
<glyph unicode="&#xe61e;" d="M721.059 380.209c-55.981 0-142.856-15.562-209.059-46.689-66.201 31.127-153.077 46.689-209.059 46.689-100.58 0-301.973-50.406-301.973-150.987v-127.757h1022.065v127.757c0 100.58-201.393 150.987-301.973 150.987zM535.229 171.15h-464.575v58.072c0 24.855 118.931 81.301 232.287 81.301s232.287-56.446 232.287-81.301v-58.072zM953.345 171.15h-348.431v58.072c0 21.138-9.291 39.953-24.159 56.678 41.115 13.938 91.289 24.622 140.301 24.622 113.356 0 232.287-56.446 232.287-81.301v-58.072zM302.941 426.667c89.896 0 162.601 72.938 162.601 162.601s-72.705 162.601-162.601 162.601c-89.663 0-162.601-72.938-162.601-162.601s72.938-162.601 162.601-162.601zM302.941 682.184c51.336 0 92.914-41.579 92.914-92.914s-41.579-92.914-92.914-92.914-92.914 41.579-92.914 92.914 41.579 92.914 92.914 92.914zM721.059 426.667c89.896 0 162.601 72.938 162.601 162.601s-72.705 162.601-162.601 162.601c-89.663 0-162.601-72.938-162.601-162.601s72.938-162.601 162.601-162.601zM721.059 682.184c51.336 0 92.914-41.579 92.914-92.914s-41.579-92.914-92.914-92.914-92.914 41.579-92.914 92.914 41.579 92.914 92.914 92.914z" />
<glyph unicode="&#xe61f;" d="M552.418 283.811l-118.002 116.608 1.394 1.394c80.836 90.127 138.443 193.728 172.357 303.367h136.12v93.147h-325.203v92.914h-92.914v-92.914h-325.203v-92.451h518.93c-31.359-89.663-80.371-174.68-147.27-249.011-43.205 48.083-78.978 100.348-107.317 155.632h-92.914c33.914-75.726 80.371-147.27 138.443-211.846l-236.236-233.449 65.737-65.737 232.287 232.287 144.482-144.482 35.308 94.541zM813.973 519.581h-92.914l-209.059-557.49h92.914l52.265 139.372h220.674l52.265-139.372h92.914l-209.059 557.49zM692.022 194.38l75.493 201.393 75.493-201.393h-150.987z" />
<glyph unicode="&#xe620;" d="M419.086 55.007v278.744h185.83v-278.744h232.287v371.66h139.372l-464.575 418.118-464.575-418.118h139.372v-371.66z" />
<glyph unicode="&#xe621;" d="M532.674 240.837h97.096l-237.165 603.947h-86.179l-237.398-603.947h97.096l52.265 139.372h262.252l52.033-139.372zM253.232 473.125l96.167 256.677 96.167-256.677h-192.334zM957.295 445.947l-375.608-375.608-170.499 170.499-65.737-65.737 236.236-236.236 441.345 441.345-65.737 65.737z" />
<glyph unicode="&#xe622;" d="M837.203 380.209h-278.744v-278.744h-92.914v278.744h-278.744v92.914h278.744v278.744h92.914v-278.744h278.744v-92.914z" />
<glyph unicode="&#xe623;" d="M837.203 844.785h-650.404c-51.336 0-92.914-41.579-92.914-92.914v-650.404c0-51.336 41.579-92.914 92.914-92.914h650.404c51.336 0 92.914 41.579 92.914 92.914v650.404c0 51.336-41.579 92.914-92.914 92.914zM744.287 380.209h-185.83v-185.83h-92.914v185.83h-185.83v92.914h185.83v185.83h92.914v-185.83h185.83v-92.914z" />
<glyph unicode="&#xe624;" d="M512 891.242c-256.677 0-464.575-207.896-464.575-464.575s207.896-464.575 464.575-464.575 464.575 207.896 464.575 464.575-207.896 464.575-464.575 464.575zM744.287 380.209h-185.83v-185.83h-92.914v185.83h-185.83v92.914h185.83v185.83h92.914v-185.83h185.83v-92.914z" />
<glyph unicode="&#xe625;" d="M558.458 658.954h-92.914v-185.83h-185.83v-92.914h185.83v-185.83h92.914v185.83h185.83v92.914h-185.83v185.83zM512 891.242c-256.677 0-464.575-207.896-464.575-464.575s207.896-464.575 464.575-464.575 464.575 207.896 464.575 464.575-207.896 464.575-464.575 464.575zM512 55.007c-204.878 0-371.66 166.782-371.66 371.66s166.782 371.66 371.66 371.66 371.66-166.782 371.66-371.66-166.782-371.66-371.66-371.66z" />
<glyph unicode="&#xe626;" d="M837.203 686.132l-65.737 65.737-259.465-259.465-259.465 259.465-65.737-65.737 259.465-259.465-259.465-259.465 65.737-65.737 259.465 259.465 259.465-259.465 65.737 65.737-259.465 259.465z" />
<glyph unicode="&#xe627;" d="M632.092 612.497l-120.092-120.092-120.092 120.092-65.737-65.737 120.092-120.092-120.092-120.092 65.737-65.737 120.092 120.092 120.092-120.092 65.737 65.737-120.092 120.092 120.092 120.092-65.737 65.737zM512 891.242c-256.677 0-464.575-207.896-464.575-464.575s207.896-464.575 464.575-464.575 464.575 207.896 464.575 464.575-207.896 464.575-464.575 464.575zM512 55.007c-204.878 0-371.66 166.782-371.66 371.66s166.782 371.66 371.66 371.66 371.66-166.782 371.66-371.66-166.782-371.66-371.66-371.66z" />
<glyph unicode="&#xe628;" d="M512 891.242c-256.677 0-464.575-207.896-464.575-464.575s207.896-464.575 464.575-464.575 464.575 207.896 464.575 464.575-207.896 464.575-464.575 464.575zM744.287 260.117l-65.737-65.737-166.55 166.55-166.55-166.55-65.737 65.737 166.55 166.55-166.55 166.55 65.737 65.737 166.55-166.55 166.55 166.55 65.737-65.737-166.55-166.55 166.55-166.55z" />
<glyph unicode="&#xe629;" d="M837.203 380.209h-650.404v92.914h650.404v-92.914z" />
<glyph unicode="&#xe62a;" d="M512 891.242c-256.677 0-464.575-207.896-464.575-464.575s207.896-464.575 464.575-464.575 464.575 207.896 464.575 464.575-207.896 464.575-464.575 464.575zM744.287 380.209h-464.575v92.914h464.575v-92.914z" />
<glyph unicode="&#xe62b;" d="M279.713 473.125v-92.914h464.575v92.914h-464.575zM512 891.242c-256.677 0-464.575-207.896-464.575-464.575s207.896-464.575 464.575-464.575 464.575 207.896 464.575 464.575-207.896 464.575-464.575 464.575zM512 55.007c-204.878 0-371.66 166.782-371.66 371.66s166.782 371.66 371.66 371.66 371.66-166.782 371.66-371.66-166.782-371.66-371.66-371.66z" />
<glyph unicode="&#xe62c;" d="M837.203 612.497l-185.83-185.83h139.372c0-154.007-124.738-278.744-278.744-278.744-47.155 0-91.289 11.847-130.313 32.287l-67.827-67.827c57.607-36.005 125.203-57.375 198.141-57.375 205.342 0 371.66 166.318 371.66 371.66h139.372l-185.83 185.83zM233.256 426.667c0 154.007 124.738 278.744 278.744 278.744 47.155 0 91.289-11.847 130.313-32.287l67.827 67.827c-57.607 36.005-125.203 57.375-198.141 57.375-205.342 0-371.66-166.318-371.66-371.66h-139.372l185.83-185.83 185.83 185.83h-139.372z" />
<glyph unicode="&#xe62d;" d="M279.713 658.954h464.575v-139.372l185.83 185.83-185.83 185.83v-139.372h-557.49v-278.744h92.914v185.83zM744.287 194.38h-464.575v139.372l-185.83-185.83 185.83-185.83v139.372h557.49v278.744h-92.914v-185.83z" />
<glyph unicode="&#xe62e;" d="M774.485 689.152c-67.131 67.364-159.813 109.175-262.485 109.175-205.342 0-371.195-166.318-371.195-371.66s165.854-371.66 371.195-371.66c173.054 0 318.001 118.466 359.116 278.744h-96.632c-38.327-108.245-140.998-185.83-262.485-185.83-154.007 0-278.744 124.738-278.744 278.744s124.738 278.744 278.744 278.744c76.887 0 145.876-32.056 196.283-82.462l-149.826-149.826h325.203v325.203l-109.175-109.175z" />
<glyph unicode="&#xe62f;" d="M512 798.327v139.372l-185.83-185.83 185.83-185.83v139.372c154.007 0 278.744-124.738 278.744-278.744 0-47.155-11.847-91.289-32.287-130.313l67.827-67.827c36.005 57.607 57.375 125.203 57.375 198.141 0 205.342-166.318 371.66-371.66 371.66zM512 147.923c-154.007 0-278.744 124.738-278.744 278.744 0 47.155 11.847 91.289 32.287 130.313l-67.827 67.827c-36.005-57.607-57.375-125.203-57.375-198.141 0-205.342 166.318-371.66 371.66-371.66v-139.372l185.83 185.83-185.83 185.83v-139.372z" />
<glyph unicode="&#xe630;" d="M419.086 689.152v97.096c-37.166-9.524-71.777-24.855-103.601-44.599l68.061-68.061c11.381 5.807 23.229 11.381 35.54 15.562zM87.611 732.821l109.408-109.408c-35.771-57.143-56.678-124.273-56.678-196.747 0-102.671 42.044-195.121 109.408-262.252l-109.408-109.408h278.744v278.744l-103.832-103.832c-50.639 50.406-81.998 119.86-81.998 196.747 0 46.458 11.615 90.127 31.824 128.688l375.608-375.608c-11.381-6.040-23.229-11.381-35.54-15.796v-96.864c37.166 9.524 71.777 24.855 103.601 44.599l109.639-109.639 59.233 59.233-731.009 730.776-59.001-59.233zM883.66 798.327h-278.744v-278.744l103.832 103.832c50.639-50.406 81.998-119.86 81.998-196.747 0-46.458-11.615-90.127-31.824-128.688l68.061-68.061c35.771 57.143 56.678 124.273 56.678 196.747 0 102.671-42.044 195.121-109.408 262.252l109.408 109.408z" />
<glyph unicode="&#xe631;" d="M93.882 426.667c0-102.671 42.277-195.121 109.408-262.252l-109.408-109.408h278.744v278.744l-103.832-103.832c-50.639 50.406-81.998 119.86-81.998 196.747 0 121.254 77.584 224.158 185.83 262.485v97.096c-160.278-41.347-278.744-186.527-278.744-359.581zM465.542 194.38h92.914v92.914h-92.914v-92.914zM930.118 798.327h-278.744v-278.744l103.832 103.832c50.639-50.406 81.998-119.86 81.998-196.747 0-121.254-77.584-224.158-185.83-262.485v-96.864c160.278 41.115 278.744 186.294 278.744 359.349 0 102.671-42.277 195.121-109.408 262.252l109.408 109.408zM465.542 380.209h92.914v278.744h-92.914v-278.744z" />
<glyph unicode="&#xe632;" d="M512 519.581c-51.336 0-92.914-41.579-92.914-92.914s41.579-92.914 92.914-92.914 92.914 41.579 92.914 92.914-41.579 92.914-92.914 92.914zM837.203 844.785h-650.404c-51.336 0-92.914-41.579-92.914-92.914v-650.404c0-51.336 41.579-92.914 92.914-92.914h650.404c51.336 0 92.914 41.579 92.914 92.914v650.404c0 51.336-41.579 92.914-92.914 92.914zM755.902 426.667c0-10.685-0.929-21.37-2.323-31.824l68.758-53.89c6.040-4.878 7.897-13.705 3.716-20.674l-65.040-112.66c-3.95-6.968-12.544-9.757-19.977-6.968l-81.068 32.753c-16.725-13.008-35.075-23.693-55.052-32.056l-12.078-86.179c-0.929-7.665-7.665-13.705-15.796-13.705h-130.081c-8.131 0-14.866 6.040-16.028 13.705l-12.078 86.179c-19.744 8.131-38.095 19.048-55.052 32.056l-80.836-32.521c-7.434-2.787-15.796 0-19.977 6.968l-65.040 112.66c-4.181 6.968-2.323 15.796 3.716 20.674l68.758 53.659c-1.394 10.453-2.323 20.906-2.323 31.824 0 10.685 0.929 21.37 2.323 31.824l-68.758 53.659c-6.040 4.878-7.897 13.705-3.716 20.674l65.040 112.66c4.181 6.968 12.544 9.757 19.977 6.968l80.836-32.521c16.725 12.775 35.075 23.693 55.052 32.056l12.078 86.179c1.161 7.665 7.897 13.705 16.028 13.705h130.081c8.131 0 14.866-6.040 16.028-13.705l12.078-86.179c19.744-8.131 38.095-19.048 55.052-32.056l80.836 32.521c7.434 2.787 15.796 0 19.977-6.968l65.040-112.66c4.181-6.968 2.323-15.796-3.716-20.674l-68.758-53.89c1.394-10.221 2.323-20.906 2.323-31.59z" />
<glyph unicode="&#xe633;" d="M93.882 194.38v-92.914h278.744v92.914h-278.744zM93.882 751.87v-92.914h464.575v92.914h-464.575zM558.458 8.549v92.914h371.66v92.914h-371.66v92.914h-92.914v-278.744h92.914zM279.713 566.039v-92.914h-185.83v-92.914h185.83v-92.914h92.914v278.744h-92.914zM930.118 380.209v92.914h-464.575v-92.914h464.575zM651.372 566.039h92.914v92.914h185.83v92.914h-185.83v92.914h-92.914v-278.744z" />
<glyph unicode="&#xe634;" d="M93.882 182.765v-174.216h174.216l514.052 514.052-174.216 174.216-514.052-514.052zM916.411 656.864c18.118 18.118 18.118 47.618 0 65.737l-108.479 108.479c-18.118 18.118-47.618 18.118-65.737 0l-85.017-85.017 174.216-174.216 85.017 85.017z" />
<glyph unicode="&#xe635;" d="M302.941 147.923c-141.231 0-255.517 114.518-255.517 255.517s114.285 255.517 255.517 255.517h487.803c102.671 0 185.83-83.159 185.83-185.83s-83.159-185.83-185.83-185.83h-394.889c-64.111 0-116.144 52.033-116.144 116.144s52.033 116.144 116.144 116.144h348.431v-69.687h-348.431c-25.552 0-46.458-20.674-46.458-46.458s20.906-46.458 46.458-46.458h394.889c64.111 0 116.144 52.033 116.144 116.144s-52.033 116.144-116.144 116.144h-487.803c-102.671 0-185.83-83.159-185.83-185.83s83.159-185.83 185.83-185.83h441.345v-69.687h-441.345z" />
<glyph unicode="&#xe636;" d="M825.813 510.507c-29.013 146.773-158.507 257.493-313.813 257.493-123.307 0-230.187-69.973-283.733-172.16-128.213-13.867-228.267-122.453-228.267-254.507 0-141.44 114.56-256 256-256h554.667c117.76 0 213.333 95.573 213.333 213.333 0 112.64-87.68 203.947-198.187 211.84z" />
<glyph unicode="&#xe637;" d="M512 891.242c-256.677 0-464.575-207.896-464.575-464.575s207.896-464.575 464.575-464.575 464.575 207.896 464.575 464.575-207.896 464.575-464.575 464.575zM721.059 240.837h-394.889c-76.887 0-139.372 62.486-139.372 139.372s62.486 139.372 139.372 139.372l6.271-0.697c20.674 80.371 92.914 140.069 179.559 140.069 102.671 0 185.83-83.159 185.83-185.83h23.229c64.111 0 116.144-52.033 116.144-116.144s-52.033-116.144-116.144-116.144z" />
<glyph unicode="&#xe638;" d="M825.813 510.507c-29.013 146.773-158.507 257.493-313.813 257.493-123.307 0-230.187-69.973-283.733-172.16-128.213-13.867-228.267-122.453-228.267-254.507 0-141.44 114.56-256 256-256h554.667c117.76 0 213.333 95.573 213.333 213.333 0 112.64-87.68 203.947-198.187 211.84zM426.667 213.334l-149.333 149.333 60.373 60.373 88.96-88.96 220.8 220.8 60.373-60.373-281.173-281.173z" />
<glyph unicode="&#xe639;" d="M825.813 510.507c-29.013 146.773-158.507 257.493-313.813 257.493-123.307 0-230.187-69.973-283.733-172.16-128.213-13.867-228.267-122.453-228.267-254.507 0-141.44 114.56-256 256-256h554.667c117.76 0 213.333 95.573 213.333 213.333 0 112.64-87.68 203.947-198.187 211.84zM725.333 384l-213.333-213.333-213.333 213.333h128v170.667h170.667v-170.667h128z" />
<glyph unicode="&#xe63a;" d="M825.813 510.507c-29.013 146.773-158.507 257.493-313.813 257.493-62.933 0-121.6-18.56-171.093-49.92l62.293-62.293c32.64 16.853 69.547 26.88 108.8 26.88 129.707 0 234.667-104.96 234.667-234.667v-21.333h64c70.613 0 128-57.387 128-128 0-48.427-27.093-90.027-66.773-111.787l61.867-61.867c54.4 38.613 90.24 101.76 90.24 173.653 0 112.64-87.68 203.947-198.187 211.84zM128 713.6l117.333-116.907c-136.107-5.76-245.333-117.76-245.333-255.36 0-141.44 114.56-256 256-256h500.267l85.333-85.333 54.4 54.187-713.6 713.813-54.4-54.4zM329.6 512l341.333-341.333h-414.933c-94.293 0-170.667 76.373-170.667 170.667s76.373 170.667 170.667 170.667h73.6z" />
<glyph unicode="&#xe63b;" d="M825.813 510.507c-29.013 146.773-158.507 257.493-313.813 257.493-123.307 0-230.187-69.973-283.733-172.16-128.213-13.867-228.267-122.453-228.267-254.507 0-141.44 114.56-256 256-256h554.667c117.76 0 213.333 95.573 213.333 213.333 0 112.64-87.68 203.947-198.187 211.84zM810.667 170.667h-554.667c-94.293 0-170.667 76.373-170.667 170.667s76.373 170.667 170.667 170.667h30.293c27.947 98.347 118.187 170.667 225.707 170.667 129.707 0 234.667-104.96 234.667-234.667v-21.333h64c70.613 0 128-57.387 128-128s-57.387-128-128-128z" />
<glyph unicode="&#xe63c;" d="M825.813 510.507c-29.013 146.773-158.507 257.493-313.813 257.493-123.307 0-230.187-69.973-283.733-172.16-128.213-13.867-228.267-122.453-228.267-254.507 0-141.44 114.56-256 256-256h554.667c117.76 0 213.333 95.573 213.333 213.333 0 112.64-87.68 203.947-198.187 211.84zM597.333 384v-170.667h-170.667v170.667h-128l213.333 213.333 213.333-213.333h-128z" />
<glyph unicode="&#xe63d;" d="M837.203 566.039h-185.83v278.744h-278.744v-278.744h-185.83l325.203-325.203 325.203 325.203zM186.797 147.923v-92.914h650.404v92.914h-650.404z" />
<glyph unicode="&#xe63e;" d="M372.628 240.837h278.744v278.744h185.83l-325.203 325.203-325.203-325.203h185.83zM186.797 147.923h650.404v-92.914h-650.404z" />
<glyph unicode="&#xe63f;" d="M233.256 519.581c-51.336 0-92.914-41.579-92.914-92.914s41.579-92.914 92.914-92.914 92.914 41.579 92.914 92.914-41.579 92.914-92.914 92.914zM790.744 519.581c-51.336 0-92.914-41.579-92.914-92.914s41.579-92.914 92.914-92.914 92.914 41.579 92.914 92.914-41.579 92.914-92.914 92.914zM512 519.581c-51.336 0-92.914-41.579-92.914-92.914s41.579-92.914 92.914-92.914 92.914 41.579 92.914 92.914-41.579 92.914-92.914 92.914z" />
<glyph unicode="&#xe640;" d="M512 612.497c51.336 0 92.914 41.579 92.914 92.914s-41.579 92.914-92.914 92.914-92.914-41.579-92.914-92.914 41.579-92.914 92.914-92.914zM512 519.581c-51.336 0-92.914-41.579-92.914-92.914s41.579-92.914 92.914-92.914 92.914 41.579 92.914 92.914-41.579 92.914-92.914 92.914zM512 240.837c-51.336 0-92.914-41.579-92.914-92.914s41.579-92.914 92.914-92.914 92.914 41.579 92.914 92.914-41.579 92.914-92.914 92.914z" />
<glyph unicode="&#xe641;" d="M465.542 821.557h92.914v-464.575h-92.914v464.575zM724.077 708.432l-67.13-67.131c80.138-49.012 133.798-137.049 133.798-237.862 0-154.007-124.739-278.744-278.744-278.744-154.007 0-278.744 124.738-278.744 278.744 0 100.814 53.659 188.85 133.798 237.862l-67.131 67.131c-96.399-67.131-159.581-178.629-159.581-304.994 0-205.342 166.318-371.66 371.66-371.66s371.66 166.318 371.66 371.66c0 126.364-63.183 237.862-159.582 304.994z" />
<glyph unicode="&#xe642;" d="M298.667-85.333h85.333v85.333h-85.333v-85.333zM469.333-85.333h85.333v85.333h-85.333v-85.333zM554.667 853.334h-85.333v-426.667h85.333v426.667zM706.773 749.44l-61.653-61.653c73.6-45.013 122.88-125.867 122.88-218.453 0-141.44-114.56-256-256-256s-256 114.56-256 256c0 92.587 49.28 173.44 122.88 218.453l-61.653 61.653c-88.533-61.653-146.56-164.053-146.56-280.107 0-188.587 152.747-341.333 341.333-341.333s341.333 152.747 341.333 341.333c0 116.053-58.027 218.453-146.56 280.107zM640-85.333h85.333v85.333h-85.333v-85.333z" />
<glyph unicode="&#xe643;" d="M906.889 473.125h-69.687v185.83c0 51.336-41.579 92.914-92.914 92.914h-185.83v69.687c0 64.111-52.033 116.144-116.144 116.144s-116.144-52.033-116.144-116.144v-69.687h-185.83c-51.336 0-92.451-41.579-92.451-92.914l-0.232-176.538h69.454c69.221 0 125.435-56.214 125.435-125.435s-56.214-125.435-125.435-125.435h-69.454l-0.232-176.538c0-51.336 41.579-92.914 92.914-92.914h176.538v69.687c0 69.221 56.214 125.435 125.435 125.435s125.435-56.214 125.435-125.435v-69.687h176.538c51.336 0 92.914 41.579 92.914 92.914v185.83h69.687c64.111 0 116.144 52.033 116.144 116.144s-52.033 116.144-116.144 116.144z" />
<glyph unicode="&#xe644;" d="M93.882 751.87v-278.744h232.287l-46.458 185.83 185.83-46.458v232.287h-278.744c-51.336 0-92.914-41.579-92.914-92.914zM326.17 380.209h-232.287v-278.744c0-51.336 41.579-92.914 92.914-92.914h278.744v232.287l-185.83-46.458 46.458 185.83zM744.287 194.38l-185.83 46.458v-232.287h278.744c51.336 0 92.914 41.579 92.914 92.914v278.744h-232.287l46.458-185.83zM837.203 844.785h-278.744v-232.287l185.83 46.458-46.458-185.83h232.287v278.744c0 51.336-41.579 92.914-92.914 92.914z" />
<glyph unicode="&#xe645;" d="M883.66 798.327h-743.32c-51.103 0-92.451-41.812-92.451-92.914l-0.465-557.49c0-51.103 41.812-92.914 92.914-92.914h743.32c51.103 0 92.914 41.812 92.914 92.914v557.49c0 51.103-41.812 92.914-92.914 92.914zM651.372 147.923h-511.032v185.83h511.032v-185.83zM651.372 380.209h-511.032v185.83h511.032v-185.83zM883.66 147.923h-185.83v418.118h185.83v-418.118z" />
<glyph unicode="&#xe646;" d="M419.086 612.497v-371.66l232.287 185.83-232.287 185.83zM837.203 844.785h-650.404c-51.336 0-92.914-41.579-92.914-92.914v-650.404c0-51.336 41.579-92.914 92.914-92.914h650.404c51.336 0 92.914 41.579 92.914 92.914v650.404c0 51.336-41.579 92.914-92.914 92.914zM837.203 101.464h-650.404v650.404h650.404v-650.404z" />
<glyph unicode="&#xe647;" d="M72.048 71.035l62.486-25.784v419.279l-112.66-272.008c-19.512-47.155 3.020-101.742 50.174-121.486zM977.968 243.393l-230.429 555.864c-14.402 34.843-48.315 56.446-83.855 57.143-12.312 0.232-24.855-2.090-37.166-6.968l-342.16-141.695c-34.843-14.402-56.214-48.083-57.143-83.623-0.232-12.544 1.858-25.087 6.968-37.398l230.197-555.864c14.634-35.308 48.781-56.678 85.017-57.143 12.078 0 24.159 2.090 36.005 6.968l342.16 141.695c47.155 19.512 69.918 73.868 50.406 121.022zM320.363 577.654c-25.552 0-46.458 20.906-46.458 46.458s20.906 46.458 46.458 46.458 46.458-20.906 46.458-46.458-20.906-46.458-46.458-46.458zM227.449 66.621c0-51.103 41.812-92.914 92.914-92.914h67.595l-160.51 387.455v-294.541z" />
<glyph unicode="&#xe648;" d="M512 775.098c-232.287 0-430.661-144.482-511.032-348.431 80.371-203.949 278.744-348.431 511.032-348.431 232.52 0 430.661 144.482 511.032 348.431-80.371 203.949-278.513 348.431-511.032 348.431zM512 194.38c-128.223 0-232.287 104.064-232.287 232.287s104.064 232.287 232.287 232.287 232.287-104.064 232.287-232.287-104.064-232.287-232.287-232.287zM512 566.039c-76.887 0-139.372-62.486-139.372-139.372s62.486-139.372 139.372-139.372 139.372 62.486 139.372 139.372-62.486 139.372-139.372 139.372z" />
<glyph unicode="&#xe649;" d="M512 658.954c128.223 0 232.287-104.064 232.287-232.287 0-29.966-6.040-58.536-16.493-84.786l135.888-135.888c70.151 58.536 125.435 134.262 159.581 220.674-80.605 203.949-278.744 348.431-511.265 348.431-65.040 0-127.294-11.615-185.133-32.521l100.348-100.117c26.249 10.221 54.82 16.493 84.786 16.493zM47.425 785.55l127.061-127.061c-76.655-59.93-137.282-139.604-173.519-231.823 80.371-203.949 278.744-348.431 511.032-348.431 72.008 0 140.766 13.938 203.715 39.257l19.744-19.744 135.424-135.656 59.233 59.001-823.459 823.69-59.233-59.233zM304.335 528.874l71.777-71.777c-2.090-9.988-3.484-19.977-3.484-30.43 0-76.887 62.486-139.372 139.372-139.372 10.453 0 20.441 1.394 30.197 3.484l71.777-71.777c-30.894-15.331-65.273-24.622-101.974-24.622-128.223 0-232.287 104.064-232.287 232.287 0 36.702 9.291 71.080 24.622 102.207zM504.335 565.342l146.341-146.341 0.697 7.665c0 76.887-62.486 139.372-139.372 139.372l-7.665-0.697z" />
<glyph unicode="&#xe64a;" d="M697.83 937.699h-557.49c-51.336 0-92.914-41.579-92.914-92.914v-650.404h92.914v650.404h557.49v92.914zM837.203 751.87h-511.032c-51.336 0-92.914-41.579-92.914-92.914v-650.404c0-51.336 41.579-92.914 92.914-92.914h511.032c51.336 0 92.914 41.579 92.914 92.914v650.404c0 51.336-41.579 92.914-92.914 92.914zM837.203 8.549h-511.032v650.404h511.032v-650.404z" />
<glyph unicode="&#xe64b;" d="M402.361 629.222c10.453 23.229 16.725 49.012 16.725 76.19 0 102.671-83.159 185.83-185.83 185.83s-185.83-83.159-185.83-185.83 83.159-185.83 185.83-185.83c27.177 0 52.962 6.271 76.19 16.725l109.639-109.639-109.639-109.639c-23.229 10.453-49.012 16.725-76.19 16.725-102.671 0-185.83-83.159-185.83-185.83s83.159-185.83 185.83-185.83 185.83 83.159 185.83 185.83c0 27.177-6.271 52.962-16.725 76.19l109.639 109.639 325.203-325.203h139.372v46.458l-574.215 574.215zM233.256 612.497c-51.336 0-92.914 41.579-92.914 92.914s41.579 92.914 92.914 92.914 92.914-41.579 92.914-92.914-41.579-92.914-92.914-92.914zM233.256 55.007c-51.336 0-92.914 41.579-92.914 92.914s41.579 92.914 92.914 92.914 92.914-41.579 92.914-92.914-41.579-92.914-92.914-92.914zM512 403.438c-12.775 0-23.229 10.453-23.229 23.229s10.453 23.229 23.229 23.229 23.229-10.453 23.229-23.229-10.453-23.229-23.229-23.229zM837.203 844.785l-278.744-278.744 92.914-92.914 325.203 325.203v46.458z" />
<glyph unicode="&#xe64c;" d="M823.653 848.697h-186.323c-18.254 51.645-67.228 89.043-125.329 89.043s-107.074-37.398-125.329-89.043h-186.323c-49.197 0-89.043-39.847-89.043-89.043v-712.348c0-49.197 39.847-89.043 89.043-89.043h623.304c49.197 0 89.043 39.847 89.043 89.043v712.348c0 49.197-39.847 89.043-89.043 89.043zM512 848.697c24.487 0 44.522-19.813 44.522-44.522s-20.035-44.522-44.522-44.522-44.522 19.813-44.522 44.522 20.035 44.522 44.522 44.522zM823.653 47.305h-623.304v712.348h89.043v-133.565h445.218v133.565h89.043v-712.348z" />
<glyph unicode="&#xe64d;" d="M883.66 74.286v538.209l-278.744 278.744h-371.66c-51.336 0-92.451-41.579-92.451-92.914l-0.465-743.32c0-51.336 41.115-92.914 92.451-92.914h557.954c20.674 0 39.721 6.968 55.052 18.583l-206.039 206.039c-36.469-24.39-80.371-38.792-127.757-38.792-128.223 0-232.287 104.064-232.287 232.287s104.064 232.287 232.287 232.287 232.287-104.064 232.287-232.287c0-47.386-14.402-91.289-38.56-127.991l177.932-177.932zM372.628 380.209c0-76.887 62.486-139.372 139.372-139.372s139.372 62.486 139.372 139.372-62.486 139.372-139.372 139.372-139.372-62.486-139.372-139.372z" />
<glyph unicode="&#xe64e;" d="M604.914 891.242h-371.66c-51.336 0-92.451-41.579-92.451-92.914l-0.465-743.32c0-51.336 41.115-92.914 92.451-92.914h557.954c51.336 0 92.914 41.579 92.914 92.914v557.49l-278.744 278.744zM697.83 240.837h-139.372v-139.372h-92.914v139.372h-139.372v92.914h139.372v139.372h92.914v-139.372h139.372v-92.914zM558.458 566.039v255.517l255.517-255.517h-255.517z" />
<glyph unicode="&#xe64f;" d="M233.256 891.242c-51.336 0-92.451-41.579-92.451-92.914l-0.465-743.32c0-51.336 41.115-92.914 92.451-92.914h557.954c51.336 0 92.914 41.579 92.914 92.914v557.49l-278.744 278.744h-371.66zM558.458 566.039v255.517l255.517-255.517h-255.517z" />
<glyph unicode="&#xe650;" d="M883.66 380.209h-789.776c-25.552 0-46.458-20.906-46.458-46.458v-278.744c0-25.552 20.906-46.458 46.458-46.458h789.776c25.552 0 46.458 20.906 46.458 46.458v278.744c0 25.552-20.906 46.458-46.458 46.458zM883.66 844.785h-789.776c-25.552 0-46.458-20.906-46.458-46.458v-278.744c0-25.552 20.906-46.458 46.458-46.458h789.776c25.552 0 46.458 20.906 46.458 46.458v278.744c0 25.552-20.906 46.458-46.458 46.458z" />
<glyph unicode="&#xe651;" d="M119.007 147.923h139.372v603.947h-139.372v-603.947zM769.411 751.87v-603.947h139.372v603.947h-139.372zM304.837 147.923h418.118v603.947h-418.118v-603.947z" />
<glyph unicode="&#xe652;" d="M279.713 101.464h464.575v696.862h-464.575v-696.862zM47.425 194.38h185.83v511.032h-185.83v-511.032zM790.744 705.411v-511.032h185.83v511.032h-185.83z" />
<glyph unicode="&#xe653;" d="M397.753 147.923h232.287v603.947h-232.287v-603.947zM119.007 147.923h232.287v603.947h-232.287v-603.947zM676.497 751.87v-603.947h232.287v603.947h-232.287z" />
<glyph unicode="&#xe654;" d="M68.758 8.549h882.692v139.372h-882.692v-139.372zM904.993 612.497h-789.776c-25.552 0-46.458-20.906-46.458-46.458v-278.744c0-25.552 20.906-46.458 46.458-46.458h789.776c25.552 0 46.458 20.906 46.458 46.458v278.744c0 25.552-20.906 46.458-46.458 46.458zM68.758 844.785v-139.372h882.692v139.372h-882.692z" />
<glyph unicode="&#xe655;" d="M119.007 287.295h789.776v92.914h-789.776v-92.914zM119.007 101.464h789.776v92.914h-789.776v-92.914zM119.007 473.125h789.776v92.914h-789.776v-92.914zM119.007 751.87v-92.914h789.776v92.914h-789.776z" />
<glyph unicode="&#xe656;" d="M119.007 333.753h185.83v185.83h-185.83v-185.83zM119.007 101.464h185.83v185.83h-185.83v-185.83zM119.007 566.039h185.83v185.83h-185.83v-185.83zM351.295 333.753h557.49v185.83h-557.49v-185.83zM351.295 101.464h557.49v185.83h-557.49v-185.83zM351.295 751.87v-185.83h557.49v185.83h-557.49z" />
<glyph unicode="&#xe657;" d="M119.007 473.125h232.287v278.744h-232.287v-278.744zM119.007 147.923h232.287v278.744h-232.287v-278.744zM397.753 147.923h232.287v278.744h-232.287v-278.744zM676.497 147.923h232.287v278.744h-232.287v-278.744zM397.753 473.125h232.287v278.744h-232.287v-278.744zM676.497 751.87v-278.744h232.287v278.744h-232.287z" />
<glyph unicode="&#xe658;" d="M397.753 147.923h232.287v278.744h-232.287v-278.744zM119.007 147.923h232.287v603.947h-232.287v-603.947zM676.497 147.923h232.287v278.744h-232.287v-278.744zM397.753 751.87v-278.744h511.032v278.744h-511.032z" />
<glyph unicode="&#xe659;" d="M119.007 147.923h789.776v278.744h-789.776v-278.744zM119.007 751.87v-278.744h789.776v278.744h-789.776z" />
<glyph unicode="&#xe65a;" d="M254.589 751.87h-139.372c-25.552 0-46.458-20.906-46.458-46.458v-557.49c0-25.552 20.906-46.458 46.458-46.458h139.372c25.552 0 46.458 20.906 46.458 46.458v557.49c0 25.552-20.906 46.458-46.458 46.458zM904.993 751.87h-139.372c-25.552 0-46.458-20.906-46.458-46.458v-557.49c0-25.552 20.906-46.458 46.458-46.458h139.372c25.552 0 46.458 20.906 46.458 46.458v557.49c0 25.552-20.906 46.458-46.458 46.458zM579.791 751.87h-139.372c-25.552 0-46.458-20.906-46.458-46.458v-557.49c0-25.552 20.906-46.458 46.458-46.458h139.372c25.552 0 46.458 20.906 46.458 46.458v557.49c0 25.552-20.906 46.458-46.458 46.458z" />
<glyph unicode="&#xe65b;" d="M558.225 844.785c-231.126 0-417.885-187.224-417.885-418.118h-139.372l180.953-180.953 3.253-6.737 187.456 187.687h-139.372c0 179.559 145.645 325.203 325.203 325.203s325.203-145.645 325.203-325.203-145.645-325.203-325.203-325.203c-89.896 0-170.963 36.702-229.732 95.47l-65.737-65.737c75.493-75.726 179.79-122.647 295.238-122.647 231.126 0 418.349 187.224 418.349 418.118s-187.224 418.118-418.349 418.118zM512 612.497v-232.287l198.838-118.002 33.45 56.446-162.601 96.399v197.444h-69.687z" />
<glyph unicode="&#xe65c;" d="M511.768 891.242c-256.677 0-464.342-207.896-464.342-464.575s207.665-464.575 464.342-464.575c256.677 0 464.807 207.896 464.807 464.575s-208.13 464.575-464.807 464.575zM512 55.007c-205.342 0-371.66 166.318-371.66 371.66s166.318 371.66 371.66 371.66 371.66-166.318 371.66-371.66-166.318-371.66-371.66-371.66zM535.229 658.954h-69.687v-278.744l243.67-146.341 35.075 57.143-209.059 124.041z" />
<glyph unicode="&#xe65d;" d="M674.601 333.753h-36.934l-12.775 12.775c45.528 52.73 72.938 121.254 72.938 196.283 0 166.782-135.191 301.973-301.973 301.973s-301.973-135.191-301.973-301.973 135.191-301.973 301.973-301.973c75.029 0 143.553 27.409 196.283 72.705l12.775-12.775v-36.702l232.287-231.823 69.221 69.221-231.823 232.287zM395.856 333.753c-115.447 0-209.059 93.611-209.059 209.059s93.611 209.059 209.059 209.059 209.059-93.611 209.059-209.059-93.611-209.059-209.059-209.059z" />
<glyph unicode="&#xe65e;" d="M423.034 260.117l65.737-65.737 232.287 232.287-232.287 232.287-65.737-65.737 120.092-120.092h-449.245v-92.914h449.245l-120.092-120.092zM837.203 844.785h-650.404c-51.336 0-92.914-41.579-92.914-92.914v-185.83h92.914v185.83h650.404v-650.404h-650.404v185.83h-92.914v-185.83c0-51.336 41.579-92.914 92.914-92.914h650.404c51.336 0 92.914 41.579 92.914 92.914v650.404c0 51.336-41.579 92.914-92.914 92.914z" />
<glyph unicode="&#xe65f;" d="M837.203 798.327h-650.404c-51.336 0-92.914-41.579-92.914-92.914v-557.49c0-51.336 41.579-92.914 92.914-92.914h185.83v92.914h-185.83v464.575h650.404v-464.575h-185.83v-92.914h185.83c51.336 0 92.914 41.579 92.914 92.914v557.49c0 51.336-41.579 92.914-92.914 92.914zM512 519.581l-185.83-185.83h139.372v-278.744h92.914v278.744h139.372l-185.83 185.83z" />
<glyph unicode="&#xe660;" d="M837.203 101.464h-650.404v650.404h325.203v92.914h-325.203c-51.336 0-92.914-41.579-92.914-92.914v-650.404c0-51.336 41.579-92.914 92.914-92.914h650.404c51.336 0 92.914 41.579 92.914 92.914v325.203h-92.914v-325.203zM604.914 844.785v-92.914h166.55l-456.676-456.676 65.737-65.737 456.676 456.676v-166.55h92.914v325.203h-325.203z" />
<glyph unicode="&#xe661;" d="M604.914 891.242h-371.66c-51.336 0-92.451-41.579-92.451-92.914l-0.465-743.32c0-51.336 41.115-92.914 92.451-92.914h557.954c51.336 0 92.914 41.579 92.914 92.914v557.49l-278.744 278.744zM697.83 147.923h-371.66v92.914h371.66v-92.914zM697.83 333.753h-371.66v92.914h371.66v-92.914zM558.458 566.039v255.517l255.517-255.517h-255.517z" />
<glyph unicode="&#xe662;" d="M465.542 612.497c-76.887 0-139.372-62.486-139.372-139.372s62.486-139.372 139.372-139.372 139.372 62.486 139.372 139.372-62.486 139.372-139.372 139.372zM837.203 844.785h-650.404c-51.336 0-92.914-41.579-92.914-92.914v-650.404c0-51.336 41.579-92.914 92.914-92.914h650.404c51.336 0 92.914 41.579 92.914 92.914v650.404c0 51.336-41.579 92.914-92.914 92.914zM771.465 101.464l-177.932 177.932c-36.702-24.159-80.605-38.56-127.991-38.56-128.223 0-232.287 104.064-232.287 232.287s104.064 232.287 232.287 232.287 232.287-104.064 232.287-232.287c0-47.386-14.402-91.289-38.56-127.991l177.932-177.932-65.737-65.737z" />
<glyph unicode="&#xe663;" d="M511.768 122.835l-342.624 266.433-75.261-58.536 418.118-325.203 418.118 325.203-75.726 58.769-342.624-266.666zM512 240.837l418.118 325.203-418.118 325.203-418.118-325.203 75.726-58.769 342.391-266.433z" />
<glyph unicode="&#xe664;" d="M874.833 287.759l55.285 42.974-66.201 66.201-55.285-42.974 66.201-66.201zM854.16 506.806l75.958 59.233-418.118 325.203-135.424-105.226 365.853-365.853 111.729 86.643zM106.658 937.699l-59.233-59.233 196.050-196.050-149.593-116.376 75.726-58.769 342.391-266.433 97.328 75.726 66.201-66.201-163.994-127.526-342.391 266.433-75.261-58.536 418.118-325.203 229.732 178.862 175.841-175.841 59.001 59.233-869.915 869.915z" />
<glyph unicode="&#xf000;" d="M53.143 844.571q0 13.143 10.286 20.857t21.714 10 24.571 2.286h804.571q13.143 0 24.571-2.286t21.714-10 10.286-20.857q0-20-24.571-44.571l-361.143-361.143v-438.857h182.857q14.857 0 25.714-10.857t10.857-25.714-10.857-25.714-25.714-10.857h-512q-14.857 0-25.714 10.857t-10.857 25.714 10.857 25.714 25.714 10.857h182.857v438.857l-361.143 361.143q-24.571 24.571-24.571 44.571z" />
<glyph unicode="&#xf001;" d="M0 36.571q0 28.571 19.429 50.857t49.143 34.571 59.143 18.286 55.143 6q60 0 109.714-22.286v552.571q0 17.714 10.857 32.286t28 20.286l475.429 146.286q6.857 2.286 16 2.286 22.857 0 38.857-16t16-38.857v-640q0-28.571-19.429-50.857t-49.143-34.571-59.143-18.286-55.143-6-55.143 6-59.143 18.286-49.143 34.571-19.429 50.857 19.429 50.857 49.143 34.571 59.143 18.286 55.143 6q60 0 109.714-22.286v306.857l-438.857-135.429v-405.143q0-28.571-19.429-50.857t-49.143-34.571-59.143-18.286-55.143-6-55.143 6-59.143 18.286-49.143 34.571-19.429 50.857z" />
<glyph unicode="&#xf003;" d="M0 91.428v621.714q0 37.714 26.857 64.571t64.571 26.857h841.143q37.714 0 64.571-26.857t26.857-64.571v-621.714q0-37.714-26.857-64.571t-64.571-26.857h-841.143q-37.714 0-64.571 26.857t-26.857 64.571zM73.143 91.428q0-7.429 5.429-12.857t12.857-5.429h841.143q7.429 0 12.857 5.429t5.429 12.857v438.857q-18.286-20.571-39.429-37.714-153.143-117.714-243.429-193.143-29.143-24.571-47.429-38.286t-49.429-27.714-58.571-14h-1.143q-27.429 0-58.571 14t-49.429 27.714-47.429 38.286q-90.286 75.429-243.429 193.143-21.143 17.143-39.429 37.714v-438.857zM73.143 713.143q0-96 84-162.286 110.286-86.857 229.143-181.143 3.429-2.857 20-16.857t26.286-21.429 25.429-18 28.857-15.714 24.571-5.143h1.143q11.429 0 24.571 5.143t28.857 15.714 25.429 18 26.286 21.429 20 16.857q118.857 94.286 229.143 181.143 30.857 24.571 57.429 66t26.571 75.143v14t-0.286 7.429-1.714 7.143-3.143 5.143-5.143 4.286-8 1.429h-841.143q-7.429 0-12.857-5.429t-5.429-12.857z" />
<glyph unicode="&#xf004;" d="M0 610.286q0 125.714 72.571 196.571t200.571 70.857q35.429 0 72.286-12.286t68.571-33.143 54.571-39.143 43.429-38.857q20.571 20.571 43.429 38.857t54.571 39.143 68.571 33.143 72.286 12.286q128 0 200.571-70.857t72.571-196.571q0-126.286-130.857-257.143l-356-342.857q-10.286-10.286-25.143-10.286t-25.143 10.286l-356.571 344q-5.714 4.571-15.714 14.857t-31.714 37.429-38.857 55.714-30.571 69.143-13.429 78.857z" />
<glyph unicode="&#xf005;" d="M0 581.143q0 21.143 32 26.286l286.857 41.714 128.571 260q10.857 23.429 28 23.429t28-23.429l128.571-260 286.857-41.714q32-5.143 32-26.286 0-12.571-14.857-27.429l-207.429-202.286 49.143-285.714q0.571-4 0.571-11.429 0-12-6-20.286t-17.429-8.286q-10.857 0-22.857 6.857l-256.571 134.857-256.571-134.857q-12.571-6.857-22.857-6.857-12 0-18 8.286t-6 20.286q0 3.429 1.143 11.429l49.143 285.714-208 202.286q-14.286 15.429-14.286 27.429z" horiz-adv-x="951" />
<glyph unicode="&#xf006;" d="M0 581.143q0 21.143 32 26.286l286.857 41.714 128.571 260q10.857 23.429 28 23.429t28-23.429l128.571-260 286.857-41.714q32-5.143 32-26.286 0-12.571-14.857-27.429l-207.429-202.286 49.143-285.714q0.571-4 0.571-11.429 0-28.571-23.429-28.571-10.857 0-22.857 6.857l-256.571 134.857-256.571-134.857q-12.571-6.857-22.857-6.857-12 0-18 8.286t-6 20.286q0 3.429 1.143 11.429l49.143 285.714-208 202.286q-14.286 15.429-14.286 27.429zM126.286 546.857l174.857-169.714-41.714-240.571 216 113.714 215.429-113.714-41.143 240.571 174.857 169.714-241.143 35.429-108 218.286-108-218.286z" horiz-adv-x="951" />
<glyph unicode="&#xf008;" d="M0 18.286v768q0 37.714 26.857 64.571t64.571 26.857h914.286q37.714 0 64.571-26.857t26.857-64.571v-768q0-37.714-26.857-64.571t-64.571-26.857h-914.286q-37.714 0-64.571 26.857t-26.857 64.571zM73.143 109.714v-73.143q0-14.857 10.857-25.714t25.714-10.857h73.143q14.857 0 25.714 10.857t10.857 25.714v73.143q0 14.857-10.857 25.714t-25.714 10.857h-73.143q-14.857 0-25.714-10.857t-10.857-25.714zM73.143 256q0-14.857 10.857-25.714t25.714-10.857h73.143q14.857 0 25.714 10.857t10.857 25.714v73.143q0 14.857-10.857 25.714t-25.714 10.857h-73.143q-14.857 0-25.714-10.857t-10.857-25.714v-73.143zM73.143 475.428q0-14.857 10.857-25.714t25.714-10.857h73.143q14.857 0 25.714 10.857t10.857 25.714v73.143q0 14.857-10.857 25.714t-25.714 10.857h-73.143q-14.857 0-25.714-10.857t-10.857-25.714v-73.143zM73.143 694.857q0-14.857 10.857-25.714t25.714-10.857h73.143q14.857 0 25.714 10.857t10.857 25.714v73.143q0 14.857-10.857 25.714t-25.714 10.857h-73.143q-14.857 0-25.714-10.857t-10.857-25.714v-73.143zM292.571 36.571q0-14.857 10.857-25.714t25.714-10.857h438.857q14.857 0 25.714 10.857t10.857 25.714v292.571q0 14.857-10.857 25.714t-25.714 10.857h-438.857q-14.857 0-25.714-10.857t-10.857-25.714v-292.571zM292.571 475.428q0-14.857 10.857-25.714t25.714-10.857h438.857q14.857 0 25.714 10.857t10.857 25.714v292.571q0 14.857-10.857 25.714t-25.714 10.857h-438.857q-14.857 0-25.714-10.857t-10.857-25.714v-292.571zM877.714 109.714v-73.143q0-14.857 10.857-25.714t25.714-10.857h73.143q14.857 0 25.714 10.857t10.857 25.714v73.143q0 14.857-10.857 25.714t-25.714 10.857h-73.143q-14.857 0-25.714-10.857t-10.857-25.714zM877.714 256q0-14.857 10.857-25.714t25.714-10.857h73.143q14.857 0 25.714 10.857t10.857 25.714v73.143q0 14.857-10.857 25.714t-25.714 10.857h-73.143q-14.857 0-25.714-10.857t-10.857-25.714v-73.143zM877.714 475.428q0-14.857 10.857-25.714t25.714-10.857h73.143q14.857 0 25.714 10.857t10.857 25.714v73.143q0 14.857-10.857 25.714t-25.714 10.857h-73.143q-14.857 0-25.714-10.857t-10.857-25.714v-73.143zM877.714 694.857q0-14.857 10.857-25.714t25.714-10.857h73.143q14.857 0 25.714 10.857t10.857 25.714v73.143q0 14.857-10.857 25.714t-25.714 10.857h-73.143q-14.857 0-25.714-10.857t-10.857-25.714v-73.143z" horiz-adv-x="1097" />
<glyph unicode="&#xf009;" d="M0 146.286v219.429q0 29.714 21.714 51.429t51.429 21.714h292.571q29.714 0 51.429-21.714t21.714-51.429v-219.429q0-29.714-21.714-51.429t-51.429-21.714h-292.571q-29.714 0-51.429 21.714t-21.714 51.429zM0 585.143v219.429q0 29.714 21.714 51.429t51.429 21.714h292.571q29.714 0 51.429-21.714t21.714-51.429v-219.429q0-29.714-21.714-51.429t-51.429-21.714h-292.571q-29.714 0-51.429 21.714t-21.714 51.429zM512 146.286v219.429q0 29.714 21.714 51.429t51.429 21.714h292.571q29.714 0 51.429-21.714t21.714-51.429v-219.429q0-29.714-21.714-51.429t-51.429-21.714h-292.571q-29.714 0-51.429 21.714t-21.714 51.429zM512 585.143v219.429q0 29.714 21.714 51.429t51.429 21.714h292.571q29.714 0 51.429-21.714t21.714-51.429v-219.429q0-29.714-21.714-51.429t-51.429-21.714h-292.571q-29.714 0-51.429 21.714t-21.714 51.429z" horiz-adv-x="951" />
<glyph unicode="&#xf00a;" d="M0 128v109.714q0 22.857 16 38.857t38.857 16h182.857q22.857 0 38.857-16t16-38.857v-109.714q0-22.857-16-38.857t-38.857-16h-182.857q-22.857 0-38.857 16t-16 38.857zM0 420.571v109.714q0 22.857 16 38.857t38.857 16h182.857q22.857 0 38.857-16t16-38.857v-109.714q0-22.857-16-38.857t-38.857-16h-182.857q-22.857 0-38.857 16t-16 38.857zM0 713.143v109.714q0 22.857 16 38.857t38.857 16h182.857q22.857 0 38.857-16t16-38.857v-109.714q0-22.857-16-38.857t-38.857-16h-182.857q-22.857 0-38.857 16t-16 38.857zM365.714 128v109.714q0 22.857 16 38.857t38.857 16h182.857q22.857 0 38.857-16t16-38.857v-109.714q0-22.857-16-38.857t-38.857-16h-182.857q-22.857 0-38.857 16t-16 38.857zM365.714 420.571v109.714q0 22.857 16 38.857t38.857 16h182.857q22.857 0 38.857-16t16-38.857v-109.714q0-22.857-16-38.857t-38.857-16h-182.857q-22.857 0-38.857 16t-16 38.857zM365.714 713.143v109.714q0 22.857 16 38.857t38.857 16h182.857q22.857 0 38.857-16t16-38.857v-109.714q0-22.857-16-38.857t-38.857-16h-182.857q-22.857 0-38.857 16t-16 38.857zM731.429 128v109.714q0 22.857 16 38.857t38.857 16h182.857q22.857 0 38.857-16t16-38.857v-109.714q0-22.857-16-38.857t-38.857-16h-182.857q-22.857 0-38.857 16t-16 38.857zM731.429 420.571v109.714q0 22.857 16 38.857t38.857 16h182.857q22.857 0 38.857-16t16-38.857v-109.714q0-22.857-16-38.857t-38.857-16h-182.857q-22.857 0-38.857 16t-16 38.857zM731.429 713.143v109.714q0 22.857 16 38.857t38.857 16h182.857q22.857 0 38.857-16t16-38.857v-109.714q0-22.857-16-38.857t-38.857-16h-182.857q-22.857 0-38.857 16t-16 38.857z" />
<glyph unicode="&#xf00b;" d="M0 128v109.714q0 22.857 16 38.857t38.857 16h182.857q22.857 0 38.857-16t16-38.857v-109.714q0-22.857-16-38.857t-38.857-16h-182.857q-22.857 0-38.857 16t-16 38.857zM0 420.571v109.714q0 22.857 16 38.857t38.857 16h182.857q22.857 0 38.857-16t16-38.857v-109.714q0-22.857-16-38.857t-38.857-16h-182.857q-22.857 0-38.857 16t-16 38.857zM0 713.143v109.714q0 22.857 16 38.857t38.857 16h182.857q22.857 0 38.857-16t16-38.857v-109.714q0-22.857-16-38.857t-38.857-16h-182.857q-22.857 0-38.857 16t-16 38.857zM365.714 128v109.714q0 22.857 16 38.857t38.857 16h548.571q22.857 0 38.857-16t16-38.857v-109.714q0-22.857-16-38.857t-38.857-16h-548.571q-22.857 0-38.857 16t-16 38.857zM365.714 420.571v109.714q0 22.857 16 38.857t38.857 16h548.571q22.857 0 38.857-16t16-38.857v-109.714q0-22.857-16-38.857t-38.857-16h-548.571q-22.857 0-38.857 16t-16 38.857zM365.714 713.143v109.714q0 22.857 16 38.857t38.857 16h548.571q22.857 0 38.857-16t16-38.857v-109.714q0-22.857-16-38.857t-38.857-16h-548.571q-22.857 0-38.857 16t-16 38.857z" />
<glyph unicode="&#xf00c;" d="M69.143 420.571q0 22.857 16 38.857l77.714 77.714q16 16 38.857 16t38.857-16l168-168.571 374.857 375.429q16 16 38.857 16t38.857-16l77.714-77.714q16-16 16-38.857t-16-38.857l-491.429-491.429q-16-16-38.857-16t-38.857 16l-284.571 284.571q-16 16-16 38.857z" />
<glyph unicode="&#xf00e;" d="M0 475.428q0 81.714 31.714 156.286t85.714 128.571 128.571 85.714 156.286 31.714 156.286-31.714 128.571-85.714 85.714-128.571 31.714-156.286q0-125.714-70.857-228l196-196q21.143-21.143 21.143-51.429t-21.429-51.714-51.714-21.429q-30.857 0-51.429 21.714l-196 195.429q-102.286-70.857-228-70.857-81.714 0-156.286 31.714t-128.571 85.714-85.714 128.571-31.714 156.286zM146.286 475.428q0-105.714 75.143-180.857t180.857-75.143 180.857 75.143 75.143 180.857-75.143 180.857-180.857 75.143-180.857-75.143-75.143-180.857zM219.429 457.143v36.571q0 7.429 5.429 12.857t12.857 5.429h128v128q0 7.429 5.429 12.857t12.857 5.429h36.571q7.429 0 12.857-5.429t5.429-12.857v-128h128q7.429 0 12.857-5.429t5.429-12.857v-36.571q0-7.429-5.429-12.857t-12.857-5.429h-128v-128q0-7.429-5.429-12.857t-12.857-5.429h-36.571q-7.429 0-12.857 5.429t-5.429 12.857v128h-128q-7.429 0-12.857 5.429t-5.429 12.857z" horiz-adv-x="951" />
<glyph unicode="&#xf010;" d="M0 475.428q0 81.714 31.714 156.286t85.714 128.571 128.571 85.714 156.286 31.714 156.286-31.714 128.571-85.714 85.714-128.571 31.714-156.286q0-125.714-70.857-228l196-196q21.143-21.143 21.143-51.429t-21.429-51.714-51.714-21.429q-30.857 0-51.429 21.714l-196 195.429q-102.286-70.857-228-70.857-81.714 0-156.286 31.714t-128.571 85.714-85.714 128.571-31.714 156.286zM146.286 475.428q0-105.714 75.143-180.857t180.857-75.143 180.857 75.143 75.143 180.857-75.143 180.857-180.857 75.143-180.857-75.143-75.143-180.857zM219.429 457.143v36.571q0 7.429 5.429 12.857t12.857 5.429h329.143q7.429 0 12.857-5.429t5.429-12.857v-36.571q0-7.429-5.429-12.857t-12.857-5.429h-329.143q-7.429 0-12.857 5.429t-5.429 12.857z" horiz-adv-x="951" />
<glyph unicode="&#xf012;" d="M0 18.286v109.714q0 8 5.143 13.143t13.143 5.143h109.714q8 0 13.143-5.143t5.143-13.143v-109.714q0-8-5.143-13.143t-13.143-5.143h-109.714q-8 0-13.143 5.143t-5.143 13.143zM219.429 18.286v182.857q0 8 5.143 13.143t13.143 5.143h109.714q8 0 13.143-5.143t5.143-13.143v-182.857q0-8-5.143-13.143t-13.143-5.143h-109.714q-8 0-13.143 5.143t-5.143 13.143zM438.857 18.286v329.143q0 8 5.143 13.143t13.143 5.143h109.714q8 0 13.143-5.143t5.143-13.143v-329.143q0-8-5.143-13.143t-13.143-5.143h-109.714q-8 0-13.143 5.143t-5.143 13.143zM658.286 18.286v548.571q0 8 5.143 13.143t13.143 5.143h109.714q8 0 13.143-5.143t5.143-13.143v-548.571q0-8-5.143-13.143t-13.143-5.143h-109.714q-8 0-13.143 5.143t-5.143 13.143zM877.714 18.286v841.143q0 8 5.143 13.143t13.143 5.143h109.714q8 0 13.143-5.143t5.143-13.143v-841.143q0-8-5.143-13.143t-13.143-5.143h-109.714q-8 0-13.143 5.143t-5.143 13.143z" />
<glyph unicode="&#xf013;" d="M0 376.571v126.857q0 6.857 4.571 13.143t10.857 7.429l106.286 16q8 26.286 22.286 52.571-22.857 32.571-61.143 78.857-5.714 6.857-5.714 13.714 0 5.714 5.143 13.143 14.857 20.571 56.286 61.429t54 40.857q7.429 0 14.857-5.714l78.857-61.143q25.143 13.143 52 21.714 9.143 77.714 16.571 106.286 4 16 20.571 16h126.857q8 0 14-4.857t6.571-12.286l16-105.143q28-9.143 51.429-21.143l81.143 61.143q5.143 5.143 13.714 5.143 7.429 0 14.286-5.714 73.714-68 94.286-97.143 4-4.571 4-12.571 0-6.857-4.571-13.143-8.571-12-29.143-38t-30.857-40.286q14.857-28.571 23.429-56l104.571-16q7.429-1.143 12-7.143t4.571-13.429v-126.857q0-6.857-4.571-13.143t-11.429-7.429l-105.714-16q-10.857-30.857-22.286-52 20-28.571 61.143-78.857 5.714-6.857 5.714-14.286t-5.143-13.143q-15.429-21.143-56.571-61.714t-53.714-40.571q-6.857 0-14.857 5.143l-78.857 61.714q-25.143-13.143-52-21.714-9.143-77.714-16.571-106.286-4-16-20.571-16h-126.857q-8 0-14 4.857t-6.571 12.286l-16 105.143q-28 9.143-51.429 21.143l-80.571-61.143q-5.714-5.143-14.286-5.143-8 0-14.286 6.286-72 65.143-94.286 96-4 5.714-4 13.143 0 6.857 4.571 13.143 8.571 12 29.143 38t30.857 40.286q-15.429 28.571-23.429 56.571l-104.571 15.429q-7.429 1.143-12 7.143t-4.571 13.429zM292.571 438.857q0-60.571 42.857-103.429t103.429-42.857 103.429 42.857 42.857 103.429-42.857 103.429-103.429 42.857-103.429-42.857-42.857-103.429z" />
<glyph unicode="&#xf014;" d="M0 676.571v36.571q0 8 5.143 13.143t13.143 5.143h176.571l40 95.429q8.571 21.143 30.857 36t45.143 14.857h182.857q22.857 0 45.143-14.857t30.857-36l40-95.429h176.571q8 0 13.143-5.143t5.143-13.143v-36.571q0-8-5.143-13.143t-13.143-5.143h-54.857v-541.714q0-47.429-26.857-82t-64.571-34.571h-475.429q-37.714 0-64.571 33.429t-26.857 80.857v544h-54.857q-8 0-13.143 5.143t-5.143 13.143zM146.286 116.571q0-12.571 4-23.143t8.286-15.429 6-4.857h475.429q1.714 0 6 4.857t8.286 15.429 4 23.143v541.714h-512v-541.714zM219.429 201.143v329.143q0 8 5.143 13.143t13.143 5.143h36.571q8 0 13.143-5.143t5.143-13.143v-329.143q0-8-5.143-13.143t-13.143-5.143h-36.571q-8 0-13.143 5.143t-5.143 13.143zM274.286 731.428h256l-27.429 66.857q-4 5.143-9.714 6.286h-181.143q-5.714-1.143-9.714-6.286zM365.714 201.143v329.143q0 8 5.143 13.143t13.143 5.143h36.571q8 0 13.143-5.143t5.143-13.143v-329.143q0-8-5.143-13.143t-13.143-5.143h-36.571q-8 0-13.143 5.143t-5.143 13.143zM512 201.143v329.143q0 8 5.143 13.143t13.143 5.143h36.571q8 0 13.143-5.143t5.143-13.143v-329.143q0-8-5.143-13.143t-13.143-5.143h-36.571q-8 0-13.143 5.143t-5.143 13.143z" horiz-adv-x="805" />
<glyph unicode="&#xf016;" d="M0-18.286v914.286q0 22.857 16 38.857t38.857 16h512q22.857 0 50.286-11.429t43.429-27.429l178.286-178.286q16-16 27.429-43.429t11.429-50.286v-658.286q0-22.857-16-38.857t-38.857-16h-768q-22.857 0-38.857 16t-16 38.857zM73.143 0h731.429v585.143h-237.714q-22.857 0-38.857 16t-16 38.857v237.714h-438.857v-877.714zM585.143 658.286h214.857q-5.714 16.571-12.571 23.429l-178.857 178.857q-6.857 6.857-23.429 12.571v-214.857z" />
<glyph unicode="&#xf018;" d="M28.571 114.857q0 30.857 14.857 66.286l238.286 596.571q4.571 10.857 14.857 18.857t21.714 8h193.714q-7.429 0-13.143-5.429t-6.286-12.857l-8.571-109.714q-0.571-8 4.571-13.143t12.571-5.143h94.857q7.429 0 12.571 5.143t4.571 13.143l-8.571 109.714q-0.571 7.429-6.286 12.857t-13.143 5.429h193.714q11.429 0 21.714-8t14.857-18.857l238.286-596.571q14.857-35.429 14.857-66.286 0-41.714-26.286-41.714h-402.286q7.429 0 12.571 5.429t4.571 12.857l-11.429 146.286q-0.571 7.429-6.286 12.857t-13.143 5.429h-155.429q-7.429 0-13.143-5.429t-6.286-12.857l-11.429-146.286q-0.571-7.429 4.571-12.857t12.571-5.429h-402.286q-26.286 0-26.286 41.714zM462.286 381.714q-0.571-6.857 4.571-11.429t12-4.571h139.429q6.857 0 12 4.571t4.571 11.429v2.286l-13.714 182.857q-0.571 7.429-6.286 12.857t-13.143 5.429h-106.286q-7.429 0-13.143-5.429t-6.286-12.857l-13.714-182.857v-2.286z" horiz-adv-x="1097" />
<glyph unicode="&#xf01a;" d="M0 438.857q0 119.429 58.857 220.286t159.714 159.714 220.286 58.857 220.286-58.857 159.714-159.714 58.857-220.286-58.857-220.286-159.714-159.714-220.286-58.857-220.286 58.857-159.714 159.714-58.857 220.286zM128 438.857q0-84.571 41.714-156t113.143-113.143 156-41.714 156 41.714 113.143 113.143 41.714 156-41.714 156-113.143 113.143-156 41.714-156-41.714-113.143-113.143-41.714-156zM238.857 427.428q4.571 11.429 17.143 11.429h109.714v201.143q0 8 5.143 13.143t13.143 5.143h109.714q8 0 13.143-5.143t5.143-13.143v-201.143h109.714q8 0 13.143-5.143t5.143-13.143q0-6.857-5.714-13.714l-182.286-182.286q-6.286-5.143-13.143-5.143t-13.143 5.143l-182.857 182.857q-8.571 9.143-4 20z" />
<glyph unicode="&#xf01b;" d="M0 438.857q0 119.429 58.857 220.286t159.714 159.714 220.286 58.857 220.286-58.857 159.714-159.714 58.857-220.286-58.857-220.286-159.714-159.714-220.286-58.857-220.286 58.857-159.714 159.714-58.857 220.286zM128 438.857q0-84.571 41.714-156t113.143-113.143 156-41.714 156 41.714 113.143 113.143 41.714 156-41.714 156-113.143 113.143-156 41.714-156-41.714-113.143-113.143-41.714-156zM237.714 457.143q0 6.857 5.714 13.714l182.286 182.286q6.286 5.143 13.143 5.143t13.143-5.143l182.857-182.857q8.571-9.143 4-20-4.571-11.429-17.143-11.429h-109.714v-201.143q0-8-5.143-13.143t-13.143-5.143h-109.714q-8 0-13.143 5.143t-5.143 13.143v201.143h-109.714q-8 0-13.143 5.143t-5.143 13.143z" />
<glyph unicode="&#xf01c;" d="M0 109.714v275.429q0 35.429 14.286 70.286l136 315.429q5.714 14.286 20.857 24t30 9.714h475.429q14.857 0 30-9.714t20.857-24l136-315.429q14.286-34.857 14.286-70.286v-275.429q0-14.857-10.857-25.714t-25.714-10.857h-804.571q-14.857 0-25.714 10.857t-10.857 25.714zM112.571 402.286h180.571l54.286-109.714h182.857l54.286 109.714h180.571q-0.571 1.714-1.429 4.571t-1.429 4.571l-121.143 283.429h-404.571l-121.143-283.429q-0.571-1.143-1.429-4.571t-1.429-4.571z" />
<glyph unicode="&#xf01d;" d="M0 438.857q0 119.429 58.857 220.286t159.714 159.714 220.286 58.857 220.286-58.857 159.714-159.714 58.857-220.286-58.857-220.286-159.714-159.714-220.286-58.857-220.286 58.857-159.714 159.714-58.857 220.286zM128 438.857q0-84.571 41.714-156t113.143-113.143 156-41.714 156 41.714 113.143 113.143 41.714 156-41.714 156-113.143 113.143-156 41.714-156-41.714-113.143-113.143-41.714-156zM292.571 256v365.714q0 21.143 18.286 32 18.857 10.286 36.571-0.571l310.857-182.857q18.286-10.286 18.286-31.429t-18.286-31.429l-310.857-182.857q-8.571-5.143-18.286-5.143-9.143 0-18.286 4.571-18.286 10.857-18.286 32z" />
<glyph unicode="&#xf01e;" d="M0 438.857q0 89.143 34.857 170.286t93.714 140 140 93.714 170.286 34.857q84 0 162.571-31.714t139.714-89.429l74.286 73.714q16.571 17.714 40 8 22.286-9.714 22.286-33.714v-256q0-14.857-10.857-25.714t-25.714-10.857h-256q-24 0-33.714 22.857-9.714 22.286 8 39.429l78.857 78.857q-84.571 78.286-199.429 78.286-59.429 0-113.429-23.143t-93.429-62.571-62.571-93.429-23.143-113.429 23.143-113.429 62.571-93.429 93.429-62.571 113.429-23.143q68 0 128.571 29.714t102.286 84q4 5.714 13.143 6.857 8 0 14.286-5.143l78.286-78.857q5.143-4.571 5.429-11.714t-4.286-12.857q-62.286-75.429-150.857-116.857t-186.857-41.429q-89.143 0-170.286 34.857t-140 93.714-93.714 140-34.857 170.286z" />
<glyph unicode="&#xf022;" d="M0 164.571v621.714q0 37.714 26.857 64.571t64.571 26.857h841.143q37.714 0 64.571-26.857t26.857-64.571v-621.714q0-37.714-26.857-64.571t-64.571-26.857h-841.143q-37.714 0-64.571 26.857t-26.857 64.571zM73.143 164.571q0-7.429 5.429-12.857t12.857-5.429h841.143q7.429 0 12.857 5.429t5.429 12.857v475.429q0 7.429-5.429 12.857t-12.857 5.429h-841.143q-7.429 0-12.857-5.429t-5.429-12.857v-475.429zM146.286 237.714v36.571q0 7.429 5.429 12.857t12.857 5.429h36.571q7.429 0 12.857-5.429t5.429-12.857v-36.571q0-7.429-5.429-12.857t-12.857-5.429h-36.571q-7.429 0-12.857 5.429t-5.429 12.857zM146.286 384v36.571q0 7.429 5.429 12.857t12.857 5.429h36.571q7.429 0 12.857-5.429t5.429-12.857v-36.571q0-7.429-5.429-12.857t-12.857-5.429h-36.571q-7.429 0-12.857 5.429t-5.429 12.857zM146.286 530.286v36.571q0 7.429 5.429 12.857t12.857 5.429h36.571q7.429 0 12.857-5.429t5.429-12.857v-36.571q0-7.429-5.429-12.857t-12.857-5.429h-36.571q-7.429 0-12.857 5.429t-5.429 12.857zM292.571 237.714v36.571q0 7.429 5.429 12.857t12.857 5.429h548.571q7.429 0 12.857-5.429t5.429-12.857v-36.571q0-7.429-5.429-12.857t-12.857-5.429h-548.571q-7.429 0-12.857 5.429t-5.429 12.857zM292.571 384v36.571q0 7.429 5.429 12.857t12.857 5.429h548.571q7.429 0 12.857-5.429t5.429-12.857v-36.571q0-7.429-5.429-12.857t-12.857-5.429h-548.571q-7.429 0-12.857 5.429t-5.429 12.857zM292.571 530.286v36.571q0 7.429 5.429 12.857t12.857 5.429h548.571q7.429 0 12.857-5.429t5.429-12.857v-36.571q0-7.429-5.429-12.857t-12.857-5.429h-548.571q-7.429 0-12.857 5.429t-5.429 12.857z" />
<glyph unicode="&#xf024;" d="M36.571 804.571q0 30.286 21.429 51.714t51.714 21.429 51.714-21.429 21.429-51.714q0-41.143-36.571-62.857v-723.429q0-7.429-5.429-12.857t-12.857-5.429h-36.571q-7.429 0-12.857 5.429t-5.429 12.857v723.429q-36.571 21.714-36.571 62.857zM182.857 256v424q0 18.286 17.714 31.429 12 8 45.143 24.571 134.857 68.571 240.571 68.571 61.143 0 114.286-16.571t125.143-50.286q21.714-10.857 50.286-10.857 30.857 0 67.143 12t62.857 26.857 50.286 26.857 31.143 12q14.857 0 25.714-10.857t10.857-25.714v-436q0-14.286-7.143-22t-22.571-15.714q-122.857-66.286-210.857-66.286-34.857 0-70.571 12.571t-62 27.429-66 27.429-81.429 12.571q-109.714 0-265.143-83.429-9.714-5.143-18.857-5.143-14.857 0-25.714 10.857t-10.857 25.714z" />
<glyph unicode="&#xf025;" d="M0 444.571q0 86.286 38.286 166.286t102.286 138.571 152 93.429 182.857 34.857 182.857-34.857 152-93.429 102.286-138.571 38.286-166.286q0-94.857-34.286-179.429l-11.429-28-105.714-18.857q-12.571-47.429-51.714-78t-89.429-30.571v-18.286q0-8-5.143-13.143t-13.143-5.143h-36.571q-8 0-13.143 5.143t-5.143 13.143v329.143q0 8 5.143 13.143t13.143 5.143h36.571q8 0 13.143-5.143t5.143-13.143v-18.286q40.571 0 74.286-20.286t53.143-54.571l38.857 6.857q16.571 54.286 16.571 110.286 0 84.571-50.286 159.429t-135.143 119.429-180.286 44.571-180.286-44.571-135.143-119.429-50.286-159.429q0-56 16.571-110.286l38.857-6.857q19.429 34.286 53.143 54.571t74.286 20.286v18.286q0 8 5.143 13.143t13.143 5.143h36.571q8 0 13.143-5.143t5.143-13.143v-329.143q0-8-5.143-13.143t-13.143-5.143h-36.571q-8 0-13.143 5.143t-5.143 13.143v18.286q-50.286 0-89.429 30.571t-51.714 78l-105.714 18.857-11.429 28q-34.286 84.571-34.286 179.429z" horiz-adv-x="951" />
<glyph unicode="&#xf026;" d="M0 329.143v219.429q0 14.857 10.857 25.714t25.714 10.857h149.714l190.286 190.286q10.857 10.857 25.714 10.857t25.714-10.857 10.857-25.714v-621.714q0-14.857-10.857-25.714t-25.714-10.857-25.714 10.857l-190.286 190.286h-149.714q-14.857 0-25.714 10.857t-10.857 25.714z" horiz-adv-x="439" />
<glyph unicode="&#xf027;" d="M0 329.143v219.429q0 14.857 10.857 25.714t25.714 10.857h149.714l190.286 190.286q10.857 10.857 25.714 10.857t25.714-10.857 10.857-25.714v-621.714q0-14.857-10.857-25.714t-25.714-10.857-25.714 10.857l-190.286 190.286h-149.714q-14.857 0-25.714 10.857t-10.857 25.714zM518.857 338.286q0 12 6.857 20.286t16.571 14.286 19.429 13.143 16.571 20.286 6.857 32.571-6.857 32.571-16.571 20.286-19.429 13.143-16.571 14.286-6.857 20.286q0 15.429 10.857 26t25.714 10.571q8.571 0 14.286-2.857 40-15.429 64.286-53.143t24.286-81.143-24.286-80.857-64.286-53.429q-5.714-2.857-14.286-2.857-14.857 0-25.714 10.571t-10.857 26z" horiz-adv-x="658" />
<glyph unicode="&#xf028;" d="M0 329.143v219.429q0 14.857 10.857 25.714t25.714 10.857h149.714l190.286 190.286q10.857 10.857 25.714 10.857t25.714-10.857 10.857-25.714v-621.714q0-14.857-10.857-25.714t-25.714-10.857-25.714 10.857l-190.286 190.286h-149.714q-14.857 0-25.714 10.857t-10.857 25.714zM518.857 338.286q0 12 6.857 20.286t16.571 14.286 19.429 13.143 16.571 20.286 6.857 32.571-6.857 32.571-16.571 20.286-19.429 13.143-16.571 14.286-6.857 20.286q0 15.429 10.857 26t25.714 10.571q8.571 0 14.286-2.857 40-15.429 64.286-53.143t24.286-81.143-24.286-80.857-64.286-53.429q-5.714-2.857-14.286-2.857-14.857 0-25.714 10.571t-10.857 26zM576 203.428q0 22.286 22.286 33.714 32 16.571 43.429 25.143 42.286 30.857 66 77.429t23.714 99.143-23.714 99.143-66 77.429q-11.429 8.571-43.429 25.143-22.286 11.429-22.286 33.714 0 14.857 10.857 25.714t25.714 10.857q7.429 0 14.857-2.857 80-33.714 128.571-107.714t48.571-161.429-48.571-161.429-128.571-107.714q-7.429-2.857-14.286-2.857-15.429 0-26.286 10.857t-10.857 25.714zM633.714 69.143q0 20.571 22.286 33.714 4 2.286 12.857 6t12.857 6q26.286 14.286 46.857 29.143 70.286 52 109.714 129.714t39.429 165.143-39.429 165.143-109.714 129.714q-20.571 14.857-46.857 29.143-4 2.286-12.857 6t-12.857 6q-22.286 13.143-22.286 33.714 0 14.857 10.857 25.714t25.714 10.857q7.429 0 14.857-2.857 120.571-52 193.143-162t72.571-241.429-72.571-241.429-193.143-162q-7.429-2.857-14.857-2.857-14.857 0-25.714 10.857t-10.857 25.714z" horiz-adv-x="951" />
<glyph unicode="&#xf029;" d="M0 73.143v365.714h365.714v-365.714h-365.714zM0 512v365.714h365.714v-365.714h-365.714zM73.143 146.857h219.429v218.857h-219.429v-218.857zM73.143 585.143h219.429v219.429h-219.429v-219.429zM146.286 219.428v73.143h73.143v-73.143h-73.143zM146.286 658.286v73.143h73.143v-73.143h-73.143zM438.857 73.143v365.714h219.429v-73.143h73.143v73.143h73.143v-219.429h-219.429v73.143h-73.143v-219.429h-73.143zM438.857 512v365.714h365.714v-365.714h-365.714zM512 585.143h219.429v219.429h-219.429v-219.429zM585.143 73.143v73.143h73.143v-73.143h-73.143zM585.143 658.286v73.143h73.143v-73.143h-73.143zM731.429 73.143v73.143h73.143v-73.143h-73.143z" horiz-adv-x="805" />
<glyph unicode="&#xf02a;" d="M0 73.143v804.571h36v-804.571h-36zM53.714 73.714v804h18.286v-804h-18.286zM108 73.714v804h17.714v-804h-17.714zM197.714 73.714v804h17.714v-804h-17.714zM269.714 73.714v804h35.429v-804h-35.429zM359.429 73.714v804h17.714v-804h-17.714zM395.429 73.714v804h17.714v-804h-17.714zM431.429 73.714v804h17.714v-804h-17.714zM502.857 73.714v804h36v-804h-36zM592.571 73.714v804h36v-804h-36zM664.571 73.714v804h36v-804h-36zM736.571 73.714v804h36v-804h-36zM790.286 73.714v804h36v-804h-36zM880.571 73.714v804h53.714v-804h-53.714zM952 73.714v804h18.286v-804h-18.286zM988 73.143v804.571h36v-804.571h-36z" />
<glyph unicode="&#xf02b;" d="M0 566.857v237.714q0 29.714 21.714 51.429t51.429 21.714h237.714q30.286 0 66.857-15.143t58.286-36.857l408.571-408q21.143-22.286 21.143-52 0-30.286-21.143-51.429l-280.571-281.143q-22.286-21.143-52-21.143-30.286 0-51.429 21.143l-408.571 409.143q-21.714 21.143-36.857 57.714t-15.143 66.857zM109.714 694.857q0-30.286 21.429-51.714t51.714-21.429 51.714 21.429 21.429 51.714-21.429 51.714-51.714 21.429-51.714-21.429-21.429-51.714z" />
<glyph unicode="&#xf02c;" d="M0 566.857v237.714q0 29.714 21.714 51.429t51.429 21.714h237.714q30.286 0 66.857-15.143t58.286-36.857l408.571-408q21.143-22.286 21.143-52 0-30.286-21.143-51.429l-280.571-281.143q-22.286-21.143-52-21.143-30.286 0-51.429 21.143l-408.571 409.143q-21.714 21.143-36.857 57.714t-15.143 66.857zM109.714 694.857q0-30.286 21.429-51.714t51.714-21.429 51.714 21.429 21.429 51.714-21.429 51.714-51.714 21.429-51.714-21.429-21.429-51.714zM402.286 877.714h128q30.286 0 66.857-15.143t58.286-36.857l408.571-408q21.143-22.286 21.143-52 0-30.286-21.143-51.429l-280.571-281.143q-22.286-21.143-52-21.143-20.571 0-33.714 8t-30.286 25.714l268.571 268.571q21.143 21.143 21.143 51.429 0 29.714-21.143 52l-408.571 408q-21.714 21.714-58.286 36.857t-66.857 15.143z" horiz-adv-x="1097" />
<glyph unicode="&#xf02d;" d="M5.714 178.286q0 2.286 1.714 15.429t2.286 21.143q0.571 4.571-1.714 12.286t-1.714 11.143q1.143 6.286 4.571 12t9.429 13.429 9.429 13.429q13.143 21.714 25.714 52.286t17.143 52.286q1.714 5.714 0.286 17.143t-0.286 16q1.714 6.286 9.714 16t9.714 13.143q12 20.571 24 52.571t14.286 51.429q0.571 5.143-1.429 18.286t0.286 16q2.286 7.429 12.571 17.429t12.571 12.857q10.857 14.857 24.286 48.286t15.714 55.143q0.571 4.571-1.714 14.571t-1.143 15.143q1.143 4.571 5.143 10.286t10.286 13.143 9.714 12q4.571 6.857 9.429 17.429t8.571 20 9.143 20.571 11.143 18.286 15.143 13.429 20.571 6.571 27.143-3.143l-0.571-1.714q21.714 5.143 29.143 5.143h434.857q42.286 0 65.143-32t10.286-74.286l-156.571-517.714q-20.571-68-40.857-87.714t-73.429-19.714h-496.571q-15.429 0-21.714-8.571-6.286-9.143-0.571-24.571 13.714-40 82.286-40h527.429q16.571 0 32 8.857t20 23.714l171.429 564q4 12.571 2.857 32.571 21.714-8.571 33.714-24.571 22.857-32.571 10.286-73.714l-157.143-517.714q-10.857-36.571-43.714-61.429t-70-24.857h-527.429q-44 0-84.857 30.571t-56.857 75.143q-13.714 38.286-1.143 72.571zM281.143 530.286q-2.286-7.429 1.143-12.857t11.429-5.429h347.429q7.429 0 14.571 5.429t9.429 12.857l12 36.571q2.286 7.429-1.143 12.857t-11.429 5.429h-347.429q-7.429 0-14.571-5.429t-9.429-12.857zM328.571 676.571q-2.286-7.429 1.143-12.857t11.429-5.429h347.429q7.429 0 14.571 5.429t9.429 12.857l12 36.571q2.286 7.429-1.143 12.857t-11.429 5.429h-347.429q-7.429 0-14.571-5.429t-9.429-12.857z" horiz-adv-x="951" />
<glyph unicode="&#xf02e;" d="M0 77.143v736.571q0 19.429 11.143 35.429t30 23.429q12 5.143 25.143 5.143h598.857q13.143 0 25.143-5.143 18.857-7.429 30-23.429t11.143-35.429v-736.571q0-19.429-11.143-35.429t-30-23.429q-10.857-4.571-25.143-4.571-27.429 0-47.429 18.286l-252 242.286-252-242.286q-20.571-18.857-47.429-18.857-13.143 0-25.143 5.143-18.857 7.429-30 23.429t-11.143 35.429z" horiz-adv-x="731" />
<glyph unicode="&#xf02f;" d="M0 164.571v237.714q0 45.143 32.286 77.429t77.429 32.286h36.571v310.857q0 22.857 16 38.857t38.857 16h384q22.857 0 50.286-11.429t43.429-27.429l86.857-86.857q16-16 27.429-43.429t11.429-50.286v-146.286h36.571q45.143 0 77.429-32.286t32.286-77.429v-237.714q0-7.429-5.429-12.857t-12.857-5.429h-128v-91.429q0-22.857-16-38.857t-38.857-16h-548.571q-22.857 0-38.857 16t-16 38.857v91.429h-128q-7.429 0-12.857 5.429t-5.429 12.857zM219.429 73.143h512v146.286h-512v-146.286zM219.429 438.857h512v219.429h-91.429q-22.857 0-38.857 16t-16 38.857v91.429h-365.714v-365.714zM804.571 402.286q0-14.857 10.857-25.714t25.714-10.857 25.714 10.857 10.857 25.714-10.857 25.714-25.714 10.857-25.714-10.857-10.857-25.714z" horiz-adv-x="951" />
<glyph unicode="&#xf031;" d="M0 0l1.143 45.143q13.143 4 32 7.143t32.571 6 28.286 8.286 25.429 16.571 17.714 28.857l135.429 352 160 413.714h73.143q4.571-8 6.286-12l117.143-274.286q18.857-44.571 60.571-147.143t65.143-156.857q8.571-19.429 33.143-82.571t41.143-96.286q11.429-25.714 20-32.571 10.857-8.571 50.286-16.857t48-11.714q3.429-21.714 3.429-32.571 0-2.286-0.286-7.429t-0.286-7.429q-36 0-108.571 4.571t-109.143 4.571q-43.429 0-122.857-4t-101.714-4.571q0 24.571 2.286 44.571l74.857 16q0.571 0 7.143 1.429t8.857 2 8.286 2.571 8.571 3.714 6.286 4.571 5.143 6.286 1.429 8q0 9.143-17.714 55.143t-41.143 101.429-24 57.143l-257.143 1.143q-14.857-33.143-43.714-111.714t-28.857-92.857q0-12.571 8-21.429t24.857-14 27.714-7.714 32.571-4.857 23.429-2.286q0.571-10.857 0.571-33.143 0-5.143-1.143-15.429-33.143 0-99.714 5.714t-99.714 5.714q-4.571 0-15.143-2.286t-12.286-2.286q-45.714-8-107.429-8zM317.143 374.286q18.857 0 78-1.143t91.714-1.143q10.857 0 32.571 1.143-49.714 144.571-105.143 258.286z" horiz-adv-x="951" />
<glyph unicode="&#xf032;" d="M0 0l1.143 53.714q8.571 2.286 48.571 9.143t60.571 15.429q4 6.857 7.143 15.429t4.857 19.143 3.143 18.571 1.714 21.429 0.286 19.429v37.429q0 561.143-12.571 585.714-2.286 4.571-12.571 8.286t-25.429 6.286-28.286 4-27.714 2.571-17.429 1.714l-2.286 47.429q56 1.143 194.286 6.571t213.143 5.429q13.143 0 39.143-0.286t38.571-0.286q40 0 78-7.429t73.429-24 61.714-40.571 42.286-59.714 16-78.571q0-29.714-9.429-54.571t-22.286-41.143-36.857-32.857-41.714-25.714-48-22.857q88-20 146.571-76.571t58.571-141.714q0-57.143-20-102.571t-53.429-74.571-78.857-48.857-93.429-27.714-100.571-8q-25.143 0-75.429 1.714t-75.429 1.714q-60.571 0-175.429-6.286t-132-6.857zM304.571 811.428q0-28.571 2.286-86.286t2.286-86.857q0-15.429-0.286-45.714t-0.286-45.143q0-26.286 0.571-39.429 24-4 62.286-4 46.857 0 81.714 7.429t62.857 25.429 42.571 51.143 14.571 81.143q0 40-16.571 70t-45.143 46.857-61.714 24.857-70.857 8q-28.571 0-74.286-7.429zM307.714 167.428q0.286-21.143 2.571-47.714t6.857-38q42.286-18.286 80-18.286 214.857 0 214.857 191.429 0 65.143-23.429 102.857-15.429 25.143-35.143 42.286t-38.571 26.571-46 14.286-48 6-54 1.143q-41.714 0-57.714-5.714 0-30.286-0.286-90.857t-0.286-90.286q0-4.571-0.571-38.571t-0.286-55.143z" horiz-adv-x="805" />
<glyph unicode="&#xf033;" d="M0 1.143l9.714 48.571q3.429 1.143 46.571 12.286t63.714 21.429q16 20 23.429 57.714 0.571 4 35.429 165.143t65.143 310.571 29.714 169.429v14.286q-13.714 7.429-31.143 10.571t-39.714 4.571-33.143 3.143l10.857 58.857q18.857-1.143 68.571-3.714t85.429-4 68.857-1.429q27.429 0 56.286 1.429t69.143 4 56.286 3.714q-2.857-22.286-10.857-50.857-17.143-5.714-58-16.286t-62-19.143q-4.571-10.857-8-24.286t-5.143-22.857-4.286-26-3.714-24q-15.429-84.571-50-239.714t-44.286-203.143q-1.143-5.143-7.429-33.143t-11.429-51.429-9.143-47.714-3.429-32.857l0.571-10.286q9.714-2.286 105.714-17.714-1.714-25.143-9.143-56.571-6.286 0-18.571-0.857t-18.571-0.857q-16.571 0-49.714 5.714t-49.143 5.714q-78.857 1.143-117.714 1.143-29.143 0-81.714-5.143t-69.143-6.286z" horiz-adv-x="585" />
<glyph unicode="&#xf034;" d="M0 657.714v218.857l46.286 0.571 30.857-15.429q6.857-2.857 120.571-2.857 25.143 0 75.429 1.143t75.429 1.143q20.571 0 61.429-0.286t61.429-0.286h167.429q3.429 0 12-0.286t11.714 0 9.143 1.714 10 5.143 8.571 10l24 0.571q2.286 0 8-0.286t8-0.286q1.143-64 1.143-192 0-45.714-2.857-62.286-22.286-8-38.857-10.286-14.286 25.143-30.857 73.143-1.714 5.143-6.286 27.429t-8.286 42-4.286 20.286q-3.429 4.571-6.857 7.143t-8.857 3.429-7.429 1.429-10.286 0.286-9.429-0.286q-9.714 0-38 0.286t-42.571 0.286-36.571-1.143-40.571-3.429q-5.143-46.286-4.571-77.714 0-53.714 1.143-221.714t1.143-260q0-9.143-1.429-40.857t0-52.286 7.143-39.429q22.857-12 70.857-24.286t68.571-21.429q2.857-22.857 2.857-28.571 0-8-1.714-16.571l-19.429-0.571q-43.429-1.143-124.571 4.571t-118.286 5.714q-28.571 0-86.286-5.143t-86.857-5.143q-1.714 29.143-1.714 29.714v5.143q9.714 15.429 35.143 24.571t56.286 16.571 44.571 15.429q10.857 24 10.857 218.857 0 57.714-1.714 173.143t-1.714 173.143v66.857q0 1.143 0.286 8.857t0.286 14.286-0.571 14.571-1.714 13.714-2.857 8q-6.286 6.857-92.571 6.857-18.857 0-53.143-6.857t-45.714-14.857q-10.857-7.429-19.429-41.429t-18-63.429-24.286-30.571q-24 14.857-32 25.143zM808 135.714q5.143 10.571 24 10.571h45.714v585.143h-45.714q-18.857 0-24 10.571t6.286 25.429l72 92.571q11.429 14.857 28 14.857t28-14.857l72-92.571q11.429-14.857 6.286-25.429t-24-10.571h-45.714v-585.143h45.714q18.857 0 24-10.571t-6.286-25.429l-72-92.571q-11.429-14.857-28-14.857t-28 14.857l-72 92.571q-11.429 14.857-6.286 25.429z" />
<glyph unicode="&#xf035;" d="M0 657.714v218.857l46.286 0.571 30.857-15.429q6.857-2.857 120.571-2.857 25.143 0 75.429 1.143t75.429 1.143q40 0 140.857 0.571t174 0.286 141.143-2.571q18.857-0.571 32 17.714l24 0.571q2.286 0 8-0.286t8-0.286q1.143-64 1.143-192 0-45.714-2.857-62.286-22.286-8-38.857-10.286-14.286 25.143-30.857 73.143-1.714 5.143-6.286 27.143t-8.571 42-4 20.571q-5.714 7.429-15.429 10.857-2.857 1.143-37.714 1.143-17.143 0-53.143 0.571t-58.857 0.571-53.714-1.143-54.857-4q-5.143-46.286-4.571-77.714l0.571-86.857v29.714q0-31.429 0.571-88t0.857-102.857 0.286-87.429q0-9.143-1.429-40.857t0-52.286 7.143-39.429q22.857-12 70.857-24.286t68.571-21.429q2.857-22.857 2.857-28.571 0-8-1.714-16.571l-19.429-0.571q-43.429-1.143-124.571 4.571t-118.286 5.714q-28.571 0-86.286-5.143t-86.857-5.143q-1.714 29.143-1.714 29.714v5.143q9.714 15.429 35.143 24.571t56.286 16.571 44.571 15.429q4 9.143 6.571 42.286t3.429 83.143 0.857 88.571-0.286 87.714-0.286 50.857q0 4-1.429 12.286t-1.429 12.857q0 4 0.286 25.143t0.571 41.714 0 43.714-1.714 38.571-3.714 18.286q-6.286 6.857-92.571 6.857-23.429 0-93.143-7.714t-78.857-14q-10.857-6.857-19.429-40.857t-18-63.714-24.286-30.857q-24 14.857-32 25.143zM2.857 36.571q0 16 14.857 28 2.286 1.714 20.571 17.143t34 28 32.857 23.714 24 11.143q7.429 0 11.714-6t5.714-16.286 1.429-19.143-0.857-18.857-0.857-11.143h585.143q0 1.143-0.857 11.143t-0.857 18.857 1.429 19.143 5.714 16.286 11.714 6q6.857 0 24-11.143t32.857-23.714 34-28 20.571-17.143q14.857-12 14.857-28t-14.857-28q-2.286-1.714-20.571-17.143t-34-28-32.857-23.714-24-11.143q-7.429 0-11.714 6t-5.714 16.286-1.429 19.143 0.857 18.857 0.857 11.143h-585.143q0-1.143 0.857-11.143t0.857-18.857-1.429-19.143-5.714-16.286-11.714-6q-6.857 0-24 11.143t-32.857 23.714-34 28-20.571 17.143q-14.857 12-14.857 28z" />
<glyph unicode="&#xf036;" d="M0 109.714v73.143q0 14.857 10.857 25.714t25.714 10.857h950.857q14.857 0 25.714-10.857t10.857-25.714v-73.143q0-14.857-10.857-25.714t-25.714-10.857h-950.857q-14.857 0-25.714 10.857t-10.857 25.714zM0 329.143v73.143q0 14.857 10.857 25.714t25.714 10.857h731.429q14.857 0 25.714-10.857t10.857-25.714v-73.143q0-14.857-10.857-25.714t-25.714-10.857h-731.429q-14.857 0-25.714 10.857t-10.857 25.714zM0 548.571v73.143q0 14.857 10.857 25.714t25.714 10.857h877.714q14.857 0 25.714-10.857t10.857-25.714v-73.143q0-14.857-10.857-25.714t-25.714-10.857h-877.714q-14.857 0-25.714 10.857t-10.857 25.714zM0 768v73.143q0 14.857 10.857 25.714t25.714 10.857h658.286q14.857 0 25.714-10.857t10.857-25.714v-73.143q0-14.857-10.857-25.714t-25.714-10.857h-658.286q-14.857 0-25.714 10.857t-10.857 25.714z" />
<glyph unicode="&#xf037;" d="M0 109.714v73.143q0 14.857 10.857 25.714t25.714 10.857h950.857q14.857 0 25.714-10.857t10.857-25.714v-73.143q0-14.857-10.857-25.714t-25.714-10.857h-950.857q-14.857 0-25.714 10.857t-10.857 25.714zM73.143 548.571v73.143q0 14.857 10.857 25.714t25.714 10.857h804.571q14.857 0 25.714-10.857t10.857-25.714v-73.143q0-14.857-10.857-25.714t-25.714-10.857h-804.571q-14.857 0-25.714 10.857t-10.857 25.714zM219.429 329.143v73.143q0 14.857 10.857 25.714t25.714 10.857h512q14.857 0 25.714-10.857t10.857-25.714v-73.143q0-14.857-10.857-25.714t-25.714-10.857h-512q-14.857 0-25.714 10.857t-10.857 25.714zM292.571 768v73.143q0 14.857 10.857 25.714t25.714 10.857h365.714q14.857 0 25.714-10.857t10.857-25.714v-73.143q0-14.857-10.857-25.714t-25.714-10.857h-365.714q-14.857 0-25.714 10.857t-10.857 25.714z" />
<glyph unicode="&#xf038;" d="M0 109.714v73.143q0 14.857 10.857 25.714t25.714 10.857h950.857q14.857 0 25.714-10.857t10.857-25.714v-73.143q0-14.857-10.857-25.714t-25.714-10.857h-950.857q-14.857 0-25.714 10.857t-10.857 25.714zM73.143 548.571v73.143q0 14.857 10.857 25.714t25.714 10.857h877.714q14.857 0 25.714-10.857t10.857-25.714v-73.143q0-14.857-10.857-25.714t-25.714-10.857h-877.714q-14.857 0-25.714 10.857t-10.857 25.714zM219.429 329.143v73.143q0 14.857 10.857 25.714t25.714 10.857h731.429q14.857 0 25.714-10.857t10.857-25.714v-73.143q0-14.857-10.857-25.714t-25.714-10.857h-731.429q-14.857 0-25.714 10.857t-10.857 25.714zM292.571 768v73.143q0 14.857 10.857 25.714t25.714 10.857h658.286q14.857 0 25.714-10.857t10.857-25.714v-73.143q0-14.857-10.857-25.714t-25.714-10.857h-658.286q-14.857 0-25.714 10.857t-10.857 25.714z" />
<glyph unicode="&#xf039;" d="M0 109.714v73.143q0 14.857 10.857 25.714t25.714 10.857h950.857q14.857 0 25.714-10.857t10.857-25.714v-73.143q0-14.857-10.857-25.714t-25.714-10.857h-950.857q-14.857 0-25.714 10.857t-10.857 25.714zM0 329.143v73.143q0 14.857 10.857 25.714t25.714 10.857h950.857q14.857 0 25.714-10.857t10.857-25.714v-73.143q0-14.857-10.857-25.714t-25.714-10.857h-950.857q-14.857 0-25.714 10.857t-10.857 25.714zM0 548.571v73.143q0 14.857 10.857 25.714t25.714 10.857h950.857q14.857 0 25.714-10.857t10.857-25.714v-73.143q0-14.857-10.857-25.714t-25.714-10.857h-950.857q-14.857 0-25.714 10.857t-10.857 25.714zM0 768v73.143q0 14.857 10.857 25.714t25.714 10.857h950.857q14.857 0 25.714-10.857t10.857-25.714v-73.143q0-14.857-10.857-25.714t-25.714-10.857h-950.857q-14.857 0-25.714 10.857t-10.857 25.714z" />
<glyph unicode="&#xf03a;" d="M0 91.428v109.714q0 7.429 5.429 12.857t12.857 5.429h109.714q7.429 0 12.857-5.429t5.429-12.857v-109.714q0-7.429-5.429-12.857t-12.857-5.429h-109.714q-7.429 0-12.857 5.429t-5.429 12.857zM0 310.857v109.714q0 7.429 5.429 12.857t12.857 5.429h109.714q7.429 0 12.857-5.429t5.429-12.857v-109.714q0-7.429-5.429-12.857t-12.857-5.429h-109.714q-7.429 0-12.857 5.429t-5.429 12.857zM0 530.286v109.714q0 7.429 5.429 12.857t12.857 5.429h109.714q7.429 0 12.857-5.429t5.429-12.857v-109.714q0-7.429-5.429-12.857t-12.857-5.429h-109.714q-7.429 0-12.857 5.429t-5.429 12.857zM0 749.714v109.714q0 7.429 5.429 12.857t12.857 5.429h109.714q7.429 0 12.857-5.429t5.429-12.857v-109.714q0-7.429-5.429-12.857t-12.857-5.429h-109.714q-7.429 0-12.857 5.429t-5.429 12.857zM219.429 91.428v109.714q0 7.429 5.429 12.857t12.857 5.429h768q7.429 0 12.857-5.429t5.429-12.857v-109.714q0-7.429-5.429-12.857t-12.857-5.429h-768q-7.429 0-12.857 5.429t-5.429 12.857zM219.429 310.857v109.714q0 7.429 5.429 12.857t12.857 5.429h768q7.429 0 12.857-5.429t5.429-12.857v-109.714q0-7.429-5.429-12.857t-12.857-5.429h-768q-7.429 0-12.857 5.429t-5.429 12.857zM219.429 530.286v109.714q0 7.429 5.429 12.857t12.857 5.429h768q7.429 0 12.857-5.429t5.429-12.857v-109.714q0-7.429-5.429-12.857t-12.857-5.429h-768q-7.429 0-12.857 5.429t-5.429 12.857zM219.429 749.714v109.714q0 7.429 5.429 12.857t12.857 5.429h768q7.429 0 12.857-5.429t5.429-12.857v-109.714q0-7.429-5.429-12.857t-12.857-5.429h-768q-7.429 0-12.857 5.429t-5.429 12.857z" />
<glyph unicode="&#xf03b;" d="M0 91.428v109.714q0 7.429 5.429 12.857t12.857 5.429h987.429q7.429 0 12.857-5.429t5.429-12.857v-109.714q0-7.429-5.429-12.857t-12.857-5.429h-987.429q-7.429 0-12.857 5.429t-5.429 12.857zM0 749.714v109.714q0 7.429 5.429 12.857t12.857 5.429h987.429q7.429 0 12.857-5.429t5.429-12.857v-109.714q0-7.429-5.429-12.857t-12.857-5.429h-987.429q-7.429 0-12.857 5.429t-5.429 12.857zM18.286 475.428q0 8 5.143 13.143l164.571 164.571q5.143 5.143 13.143 5.143 7.429 0 12.857-5.429t5.429-12.857v-329.143q0-7.429-5.429-12.857t-12.857-5.429q-8 0-13.143 5.143l-164.571 164.571q-5.143 5.143-5.143 13.143zM365.714 310.857v109.714q0 7.429 5.429 12.857t12.857 5.429h621.714q7.429 0 12.857-5.429t5.429-12.857v-109.714q0-7.429-5.429-12.857t-12.857-5.429h-621.714q-7.429 0-12.857 5.429t-5.429 12.857zM365.714 530.286v109.714q0 7.429 5.429 12.857t12.857 5.429h621.714q7.429 0 12.857-5.429t5.429-12.857v-109.714q0-7.429-5.429-12.857t-12.857-5.429h-621.714q-7.429 0-12.857 5.429t-5.429 12.857z" />
<glyph unicode="&#xf03c;" d="M0 91.428v109.714q0 7.429 5.429 12.857t12.857 5.429h987.429q7.429 0 12.857-5.429t5.429-12.857v-109.714q0-7.429-5.429-12.857t-12.857-5.429h-987.429q-7.429 0-12.857 5.429t-5.429 12.857zM0 310.857v329.143q0 7.429 5.429 12.857t12.857 5.429q8 0 13.143-5.143l164.571-164.571q5.143-5.143 5.143-13.143t-5.143-13.143l-164.571-164.571q-5.143-5.143-13.143-5.143-7.429 0-12.857 5.429t-5.429 12.857zM0 749.714v109.714q0 7.429 5.429 12.857t12.857 5.429h987.429q7.429 0 12.857-5.429t5.429-12.857v-109.714q0-7.429-5.429-12.857t-12.857-5.429h-987.429q-7.429 0-12.857 5.429t-5.429 12.857zM365.714 310.857v109.714q0 7.429 5.429 12.857t12.857 5.429h621.714q7.429 0 12.857-5.429t5.429-12.857v-109.714q0-7.429-5.429-12.857t-12.857-5.429h-621.714q-7.429 0-12.857 5.429t-5.429 12.857zM365.714 530.286v109.714q0 7.429 5.429 12.857t12.857 5.429h621.714q7.429 0 12.857-5.429t5.429-12.857v-109.714q0-7.429-5.429-12.857t-12.857-5.429h-621.714q-7.429 0-12.857 5.429t-5.429 12.857z" />
<glyph unicode="&#xf03d;" d="M0 237.714v402.286q0 68 48.286 116.286t116.286 48.286h402.286q68 0 116.286-48.286t48.286-116.286v-94.286l230.286 229.714q10.286 10.857 25.714 10.857 6.857 0 14.286-2.857 22.286-9.714 22.286-33.714v-621.714q0-24-22.286-33.714-7.429-2.857-14.286-2.857-15.429 0-25.714 10.857l-230.286 230.286v-94.857q0-68-48.286-116.286t-116.286-48.286h-402.286q-68 0-116.286 48.286t-48.286 116.286z" />
<glyph unicode="&#xf041;" d="M0 585.143q0 121.143 85.714 206.857t206.857 85.714 206.857-85.714 85.714-206.857q0-62.286-18.857-102.286l-208-442.286q-9.143-18.857-27.143-29.714t-38.571-10.857-38.571 10.857-26.571 29.714l-208.571 442.286q-18.857 40-18.857 102.286zM146.286 585.143q0-60.571 42.857-103.429t103.429-42.857 103.429 42.857 42.857 103.429-42.857 103.429-103.429 42.857-103.429-42.857-42.857-103.429z" horiz-adv-x="585" />
<glyph unicode="&#xf042;" d="M0 438.857q0 119.429 58.857 220.286t159.714 159.714 220.286 58.857 220.286-58.857 159.714-159.714 58.857-220.286-58.857-220.286-159.714-159.714-220.286-58.857-220.286 58.857-159.714 159.714-58.857 220.286zM128 438.857q0-84.571 41.714-156t113.143-113.143 156-41.714v621.714q-84.571 0-156-41.714t-113.143-113.143-41.714-156z" />
<glyph unicode="&#xf043;" d="M0 365.714q0 82.857 46.286 157.143 3.429 5.143 35.714 51.714t57.714 86.286 56.857 101.714 47.429 115.143q5.143 17.143 19.429 26.857t29.143 9.714 29.429-9.714 19.143-26.857q16-53.143 47.429-115.143t56.857-101.714 57.714-86.286 35.714-51.714q46.286-72.571 46.286-157.143 0-121.143-85.714-206.857t-206.857-85.714-206.857 85.714-85.714 206.857zM146.286 292.571q0-30.286 21.429-51.714t51.714-21.429 51.714 21.429 21.429 51.714q0 20.571-11.429 39.429-0.571 0.571-8.857 12.857t-14.571 21.714-14.286 25.143-12 28.857q-2.286 9.143-12 9.143t-12-9.143q-4-13.143-12-28.857t-14.286-25.143-14.571-21.714-8.857-12.857q-11.429-18.857-11.429-39.429z" horiz-adv-x="585" />
<glyph unicode="&#xf044;" d="M0 237.714v475.429q0 68 48.286 116.286t116.286 48.286h475.429q36 0 66.857-14.286 8.571-4 10.286-13.143 1.714-9.714-5.143-16.571l-28-28q-8-8-18.286-4.571-13.143 3.429-25.714 3.429h-475.429q-37.714 0-64.571-26.857t-26.857-64.571v-475.429q0-37.714 26.857-64.571t64.571-26.857h475.429q37.714 0 64.571 26.857t26.857 64.571v72q0 7.429 5.143 12.571l36.571 36.571q8.571 8.571 20 4t11.429-16.571v-108.571q0-68-48.286-116.286t-116.286-48.286h-475.429q-68 0-116.286 48.286t-48.286 116.286zM365.714 219.428v164.571l384 384 164.571-164.571-384-384h-164.571zM420.571 329.143h54.857v-54.857h32l66.286 66.286-86.857 86.857-66.286-66.286v-32zM539.429 466.286q9.143-9.143 18.857 0.571l200 200q9.714 9.714 0.571 18.857t-18.857-0.571l-200-200q-9.714-9.714-0.571-18.857zM786.286 804.571l52.571 52.571q16 16 38.857 16t38.857-16l86.857-86.857q16-16 16-38.857t-16-38.857l-52.571-52.571z" />
<glyph unicode="&#xf045;" d="M0 237.714v475.429q0 68 48.286 116.286t116.286 48.286h145.714q7.429 0 12.857-5.429t5.429-12.857q0-15.429-14.857-18.286-44-14.857-76-34.286-5.714-2.286-9.143-2.286h-64q-37.714 0-64.571-26.857t-26.857-64.571v-475.429q0-37.714 26.857-64.571t64.571-26.857h475.429q37.714 0 64.571 26.857t26.857 64.571v122.286q0 10.857 10.286 16.571 16 7.429 30.857 21.143 9.143 9.143 20 4.571 12-5.143 12-16.571v-148q0-68-48.286-116.286t-116.286-48.286h-475.429q-68 0-116.286 48.286t-48.286 116.286zM146.286 475.428q0 28 2 52t8 51.429 16 50.286 26.857 46.571 39.143 42.286 54 35.143 71.143 27.714 91.143 17.429 112.286 6.286h91.429v109.714q0 24 22.286 33.714 7.429 2.857 14.286 2.857 14.857 0 25.714-10.857l219.429-219.429q10.857-10.857 10.857-25.714t-10.857-25.714l-219.429-219.429q-10.286-10.857-25.714-10.857-6.857 0-14.286 2.857-22.286 9.714-22.286 33.714v109.714h-91.429q-184.571 0-250.286-74.857-68-78.286-42.286-270.286 1.714-13.143-11.429-19.429-4.571-1.143-6.857-1.143-9.143 0-14.857 7.429-5.714 8-12 17.714t-22.571 39.143-28.286 56.857-22 65.143-10 69.714z" horiz-adv-x="951" />
<glyph unicode="&#xf046;" d="M0 237.714v475.429q0 68 48.286 116.286t116.286 48.286h475.429q36 0 66.857-14.286 8.571-4 10.286-13.143 1.714-9.714-5.143-16.571l-28-28q-5.714-5.714-13.143-5.714-1.714 0-5.143 1.143-13.143 3.429-25.714 3.429h-475.429q-37.714 0-64.571-26.857t-26.857-64.571v-475.429q0-37.714 26.857-64.571t64.571-26.857h475.429q37.714 0 64.571 26.857t26.857 64.571v145.143q0 7.429 5.143 12.571l36.571 36.571q5.714 5.714 13.143 5.714 3.429 0 6.857-1.714 11.429-4.571 11.429-16.571v-181.714q0-68-48.286-116.286t-116.286-48.286h-475.429q-68 0-116.286 48.286t-48.286 116.286zM146.857 512q0 18.857 13.714 32.571l62.857 62.857q13.714 13.714 32.571 13.714t32.571-13.714l150.286-150.286 369.714 369.714q13.714 13.714 32.571 13.714t32.571-13.714l62.857-62.857q13.714-13.714 13.714-32.571t-13.714-32.571l-465.143-465.143q-13.714-13.714-32.571-13.714t-32.571 13.714l-245.714 245.714q-13.714 13.714-13.714 32.571z" horiz-adv-x="951" />
<glyph unicode="&#xf047;" d="M0 438.857q0 14.857 10.857 25.714l146.286 146.286q10.857 10.857 25.714 10.857t25.714-10.857 10.857-25.714v-73.143h219.429v219.429h-73.143q-14.857 0-25.714 10.857t-10.857 25.714 10.857 25.714l146.286 146.286q10.857 10.857 25.714 10.857t25.714-10.857l146.286-146.286q10.857-10.857 10.857-25.714t-10.857-25.714-25.714-10.857h-73.143v-219.429h219.429v73.143q0 14.857 10.857 25.714t25.714 10.857 25.714-10.857l146.286-146.286q10.857-10.857 10.857-25.714t-10.857-25.714l-146.286-146.286q-10.857-10.857-25.714-10.857t-25.714 10.857-10.857 25.714v73.143h-219.429v-219.429h73.143q14.857 0 25.714-10.857t10.857-25.714-10.857-25.714l-146.286-146.286q-10.857-10.857-25.714-10.857t-25.714 10.857l-146.286 146.286q-10.857 10.857-10.857 25.714t10.857 25.714 25.714 10.857h73.143v219.429h-219.429v-73.143q0-14.857-10.857-25.714t-25.714-10.857-25.714 10.857l-146.286 146.286q-10.857 10.857-10.857 25.714z" />
<glyph unicode="&#xf048;" d="M0 36.571v804.571q0 14.857 10.857 25.714t25.714 10.857h73.143q14.857 0 25.714-10.857t10.857-25.714v-387.429q2.286 6.286 7.429 10.857l405.714 405.714q10.857 10.857 18.286 7.429t7.429-18.286v-841.143q0-14.857-7.429-18.286t-18.286 7.429l-405.714 405.714q-5.143 5.143-7.429 10.857v-387.429q0-14.857-10.857-25.714t-25.714-10.857h-73.143q-14.857 0-25.714 10.857t-10.857 25.714z" horiz-adv-x="585" />
<glyph unicode="&#xf049;" d="M0 36.571v804.571q0 14.857 10.857 25.714t25.714 10.857h73.143q14.857 0 25.714-10.857t10.857-25.714v-387.429q2.286 6.286 7.429 10.857l405.714 405.714q10.857 10.857 18.286 7.429t7.429-18.286v-405.714q2.286 6.286 7.429 10.857l405.714 405.714q10.857 10.857 18.286 7.429t7.429-18.286v-841.143q0-14.857-7.429-18.286t-18.286 7.429l-405.714 405.714q-5.143 5.143-7.429 10.857v-405.714q0-14.857-7.429-18.286t-18.286 7.429l-405.714 405.714q-5.143 5.143-7.429 10.857v-387.429q0-14.857-10.857-25.714t-25.714-10.857h-73.143q-14.857 0-25.714 10.857t-10.857 25.714z" />
<glyph unicode="&#xf04a;" d="M69.714 438.857q0 14.857 10.857 25.714l405.714 405.714q10.857 10.857 18.286 7.429t7.429-18.286v-405.714q2.857 6.286 7.429 10.857l405.714 405.714q10.857 10.857 18.286 7.429t7.429-18.286v-841.143q0-14.857-7.429-18.286t-18.286 7.429l-405.714 405.714q-4.571 5.143-7.429 10.857v-405.714q0-14.857-7.429-18.286t-18.286 7.429l-405.714 405.714q-10.857 10.857-10.857 25.714z" horiz-adv-x="951" />
<glyph unicode="&#xf04b;" d="M0 18.286v841.143q0 14.857 9.429 20.571t22.571-1.714l758.857-421.714q13.143-7.429 13.143-17.714t-13.143-17.714l-758.857-421.714q-13.143-7.429-22.571-1.714t-9.429 20.571z" horiz-adv-x="805" />
<glyph unicode="&#xf04c;" d="M0 36.571v804.571q0 14.857 10.857 25.714t25.714 10.857h292.571q14.857 0 25.714-10.857t10.857-25.714v-804.571q0-14.857-10.857-25.714t-25.714-10.857h-292.571q-14.857 0-25.714 10.857t-10.857 25.714zM512 36.571v804.571q0 14.857 10.857 25.714t25.714 10.857h292.571q14.857 0 25.714-10.857t10.857-25.714v-804.571q0-14.857-10.857-25.714t-25.714-10.857h-292.571q-14.857 0-25.714 10.857t-10.857 25.714z" />
<glyph unicode="&#xf04d;" d="M0 36.571v804.571q0 14.857 10.857 25.714t25.714 10.857h804.571q14.857 0 25.714-10.857t10.857-25.714v-804.571q0-14.857-10.857-25.714t-25.714-10.857h-804.571q-14.857 0-25.714 10.857t-10.857 25.714z" />
</font>
</defs>
</svg>
