<?xml version="1.0" encoding="UTF-8" standalone="no"?>
<svg width="65px" height="64px" viewBox="0 0 65 64" version="1.1" xmlns="http://www.w3.org/2000/svg" xmlns:xlink="http://www.w3.org/1999/xlink" xmlns:sketch="http://www.bohemiancoding.com/sketch/ns">
    <!-- Generator: Sketch 3.4.4 (17249) - http://www.bohemiancoding.com/sketch -->
    <title>cms-icon</title>
    <desc>Created with Sketch.</desc>
    <defs></defs>
    <g id="Page-1" stroke="none" stroke-width="1" fill="none" fill-rule="evenodd" sketch:type="MSPage">
        <g id="Group" sketch:type="MSLayerGroup">
            <path d="M0.754,3.84 C0.754,1.719 2.473,0 4.594,0 L32.754,0 L48.754,13.44 L48.754,60.16 C48.754,62.281 47.035,64 44.914,64 L4.594,64 C2.473,64 0.754,62.281 0.754,60.16 L0.754,3.84 Z" id="Fill-637" fill="#FFFFFF" sketch:type="MSShapeGroup"></path>
            <path d="M32.754,0 L32.754,9.6 C32.754,11.721 34.473,13.44 36.594,13.44 L48.754,13.44 L32.754,0 Z" id="Fill-638" fill="#F0F1F1" sketch:type="MSShapeGroup"></path>
            <path d="M29.754,47 L39.754,47 C40.305,47 40.754,46.552 40.754,46 L40.754,41 C40.754,40.448 40.305,40 39.754,40 L29.754,40 C29.203,40 28.754,40.448 28.754,41 L28.754,46 C28.754,46.552 29.203,47 29.754,47" id="Fill-639" fill="#E2E4E5" sketch:type="MSShapeGroup"></path>
            <path d="M29.754,40 C29.203,40 28.754,40.448 28.754,41 L28.754,46 C28.754,46.552 29.203,47 29.754,47 L39.754,47 C40.305,47 40.754,46.552 40.754,46 L40.754,41 C40.754,40.448 40.305,40 39.754,40 L29.754,40 Z M39.754,49 L29.754,49 C28.1,49 26.754,47.654 26.754,46 L26.754,41 C26.754,39.346 28.1,38 29.754,38 L39.754,38 C41.408,38 42.754,39.346 42.754,41 L42.754,46 C42.754,47.654 41.408,49 39.754,49 L39.754,49 Z" id="Fill-640" fill="#B6BCBD" sketch:type="MSShapeGroup"></path>
            <path d="M7.754,47 L17.754,47 C18.305,47 18.754,46.552 18.754,46 L18.754,41 C18.754,40.448 18.305,40 17.754,40 L7.754,40 C7.203,40 6.754,40.448 6.754,41 L6.754,46 C6.754,46.552 7.203,47 7.754,47" id="Fill-641" fill="#E2E4E5" sketch:type="MSShapeGroup"></path>
            <path d="M7.754,40 C7.203,40 6.754,40.448 6.754,41 L6.754,46 C6.754,46.552 7.203,47 7.754,47 L17.754,47 C18.305,47 18.754,46.552 18.754,46 L18.754,41 C18.754,40.448 18.305,40 17.754,40 L7.754,40 Z M17.754,49 L7.754,49 C6.1,49 4.754,47.654 4.754,46 L4.754,41 C4.754,39.346 6.1,38 7.754,38 L17.754,38 C19.408,38 20.754,39.346 20.754,41 L20.754,46 C20.754,47.654 19.408,49 17.754,49 L17.754,49 Z" id="Fill-642" fill="#B6BCBD" sketch:type="MSShapeGroup"></path>
            <path d="M18.754,27 L28.754,27 C29.305,27 29.754,26.552 29.754,26 L29.754,21 C29.754,20.448 29.305,20 28.754,20 L18.754,20 C18.203,20 17.754,20.448 17.754,21 L17.754,26 C17.754,26.552 18.203,27 18.754,27" id="Fill-643" fill="#9CE5F4" sketch:type="MSShapeGroup"></path>
            <path d="M28.026,29 L25.768,29 L30.482,38 L32.74,38 L28.026,29 Z" id="Fill-644" fill="#CFD3D4" sketch:type="MSShapeGroup"></path>
            <path d="M19.482,29 L14.768,38 L17.026,38 L21.74,29 L19.482,29 Z" id="Fill-645" fill="#CFD3D4" sketch:type="MSShapeGroup"></path>
            <path d="M18.754,20 C18.203,20 17.754,20.448 17.754,21 L17.754,26 C17.754,26.552 18.203,27 18.754,27 L28.754,27 C29.305,27 29.754,26.552 29.754,26 L29.754,21 C29.754,20.448 29.305,20 28.754,20 L18.754,20 Z M28.754,29 L18.754,29 C17.1,29 15.754,27.654 15.754,26 L15.754,21 C15.754,19.346 17.1,18 18.754,18 L28.754,18 C30.408,18 31.754,19.346 31.754,21 L31.754,26 C31.754,27.654 30.408,29 28.754,29 L28.754,29 Z" id="Fill-646" fill="#40C9E7" sketch:type="MSShapeGroup"></path>
            <path d="M61.8979,34.4983 L40.6949,58.4653 L34.8179,59.6753 C34.6479,58.8573 34.2249,58.0823 33.5509,57.4863 C32.8769,56.8893 32.0559,56.5643 31.2229,56.4953 L31.7069,50.5143 L52.9099,26.5473 L61.8979,34.4983 Z" id="Fill-647" fill="#F4D0A1" sketch:type="MSShapeGroup"></path>
            <path d="M61.8692,34.4729 C61.8852,34.4869 61.8862,34.5109 61.8722,34.5269 L41.1512,57.9499 C41.1182,57.9879 41.0652,57.9479 41.0892,57.9029 C41.7392,56.7029 41.5032,55.1759 40.4362,54.2309 C39.3092,53.2349 37.6512,53.2359 36.5312,54.1689 C36.4992,54.1959 36.4562,54.1589 36.4792,54.1229 C37.2692,52.8979 37.0682,51.2519 35.9422,50.2549 C34.8622,49.3009 33.2942,49.2619 32.1802,50.0819 C32.1442,50.1089 32.1032,50.0669 32.1332,50.0339 L52.8852,26.5759 C52.8992,26.5599 52.9232,26.5589 52.9392,26.5729 L61.8692,34.4729 Z" id="Fill-648" fill="#059BBF" sketch:type="MSShapeGroup"></path>
            <path d="M61.8979,34.4983 L52.9099,26.5473 L54.2349,25.0493 L63.2229,33.0003 L61.8979,34.4983 Z" id="Fill-649" fill="#FACB1B" sketch:type="MSShapeGroup"></path>
            <path d="M62.7497,24.5706 L62.6597,24.4916 C60.2027,22.3176 56.4487,22.5476 54.2747,25.0046 L54.2357,25.0496 L63.2227,33.0006 L63.2627,32.9556 C65.4367,30.4986 65.2067,26.7446 62.7497,24.5706" id="Fill-650" fill="#F89392" sketch:type="MSShapeGroup"></path>
            <path d="M61.8728,34.5266 L41.1258,57.9796 C41.0948,58.0136 41.0478,57.9776 41.0698,57.9376 C41.7438,56.7326 41.5138,55.1846 40.4358,54.2306 C39.3118,53.2366 37.6588,53.2356 36.5388,54.1626 C36.5198,54.1786 36.4978,54.1546 36.5138,54.1366 L57.3788,30.5516 C57.3928,30.5356 57.4168,30.5336 57.4328,30.5476 L61.8698,34.4736 C61.8848,34.4866 61.8868,34.5106 61.8728,34.5266" id="Fill-651" fill="#0484AB" sketch:type="MSShapeGroup"></path>
            <path d="M34.8181,59.6754 L30.9001,60.4824 L31.2231,56.4954 C32.0561,56.5644 32.8771,56.8894 33.5511,57.4864 C34.2251,58.0824 34.6481,58.8574 34.8181,59.6754" id="Fill-652" fill="#3E3E3F" sketch:type="MSShapeGroup"></path>
        </g>
    </g>
</svg>