<svg width="2880" height="106" viewBox="0 0 2880 106" fill="none" xmlns="http://www.w3.org/2000/svg">
<g clip-path="url(#clip0_114_2463)">
<path fill-rule="evenodd" clip-rule="evenodd" d="M1440 0H0V0.188795C0 0.188795 206 -2.46597 420 12.1352C548.027 20.8705 666.39 37.5871 782.905 54.0427C861.148 65.0931 938.557 76.0258 1017.5 84.3447C1212.25 104.868 1359.86 104.865 1437.92 104.863L1440 104.863V0ZM1440 222.923H0V223H1440V222.923Z" fill="white"/>
<path fill-rule="evenodd" clip-rule="evenodd" d="M1440 0H2880V0.188795C2880 0.188795 2674 -2.46597 2460 12.1352C2331.97 20.8705 2213.61 37.5871 2097.1 54.0427C2018.85 65.0931 1941.44 76.0258 1862.5 84.3447C1667.75 104.868 1520.14 104.865 1442.08 104.863L1440 104.863V0ZM1440 222.923H2880V223H1440V222.923Z" fill="white"/>
</g>
<defs>
<clipPath id="clip0_114_2463">
<rect width="2880" height="106" fill="white"/>
</clipPath>
</defs>
</svg>
