<?xml version="1.0" encoding="UTF-8" standalone="no"?>
<svg width="42px" height="45px" viewBox="0 0 42 45" version="1.1" xmlns="http://www.w3.org/2000/svg" xmlns:xlink="http://www.w3.org/1999/xlink" xmlns:sketch="http://www.bohemiancoding.com/sketch/ns">
    <!-- Generator: Sketch 3.4.4 (17249) - http://www.bohemiancoding.com/sketch -->
    <title>cog-icon</title>
    <desc>Created with Sketch.</desc>
    <defs></defs>
    <g id="Page-1" stroke="none" stroke-width="1" fill="none" fill-rule="evenodd" sketch:type="MSPage">
        <g id="services" sketch:type="MSLayerGroup">
            <path d="M22.6,32.4 C22.7,32 22.7,31.5 22.7,31 C22.7,30.5 22.7,30.1 22.6,29.6 L25.4,27.6 C25.7,27.4 25.8,27 25.6,26.7 L22.9,22.1 C22.7,21.8 22.4,21.7 22.1,21.8 L19,23.3 C18.3,22.7 17.5,22.3 16.6,21.9 L16.3,18.5 C16.3,18.2 16,17.9 15.7,17.9 L10.4,17.9 C10.1,17.9 9.8,18.2 9.8,18.5 L9.4,22 C8.5,22.3 7.8,22.8 7,23.4 L3.9,22 C3.6,21.9 3.2,22 3.1,22.3 L0.4,26.9 C0.2,27.2 0.3,27.6 0.6,27.8 L3.4,29.8 C3.3,30.2 3.3,30.7 3.3,31.2 C3.3,31.7 3.3,32.1 3.4,32.6 L0.6,34.6 C0.3,34.8 0.2,35.2 0.4,35.5 L3.1,40.1 C3.3,40.4 3.6,40.5 3.9,40.4 L7,39 C7.7,39.6 8.5,40 9.4,40.4 L9.7,43.8 C9.7,44.1 10,44.4 10.3,44.4 L15.6,44.4 C15.9,44.4 16.2,44.1 16.2,43.8 L16.5,40.4 C17.4,40.1 18.1,39.6 18.9,39 L22,40.4 C22.3,40.5 22.7,40.4 22.8,40.1 L25.5,35.5 C25.7,35.2 25.6,34.8 25.3,34.6 L22.6,32.4 L22.6,32.4 Z M13,36 C10.2,36 8,33.8 8,31 C8,28.2 10.2,26 13,26 C15.8,26 18,28.2 18,31 C18,33.8 15.8,36 13,36 L13,36 Z" id="Shape" fill="#E65100" sketch:type="MSShapeGroup"></path>
            <path d="M38.9,13.3 C39,12.8 39,12.4 39,12 C39,11.6 39,11.2 38.9,10.7 L41.4,8.9 C41.7,8.7 41.7,8.4 41.6,8.1 L39.1,3.8 C38.9,3.5 38.6,3.4 38.3,3.6 L35.4,4.9 C34.7,4.4 34,4 33.2,3.6 L32.9,0.5 C33,0.2 32.8,0 32.5,0 L27.6,0 C27.3,0 27,0.2 27,0.5 L26.7,3.6 C25.9,3.9 25.2,4.3 24.5,4.9 L21.6,3.6 C21.3,3.5 21,3.6 20.8,3.8 L18.3,8.1 C18.1,8.4 18.2,8.7 18.5,8.9 L21,10.7 L21,12 C21,12.4 21,12.8 21.1,13.3 L18.6,15.1 C18.3,15.3 18.3,15.6 18.4,15.9 L20.9,20.2 C21.1,20.5 21.4,20.6 21.7,20.4 L24.6,19.1 C25.3,19.6 26,20 26.8,20.4 L27.1,23.5 C27.1,23.8 27.4,24 27.7,24 L32.6,24 C32.9,24 33.2,23.8 33.2,23.5 L33.5,20.4 C34.3,20.1 35,19.7 35.7,19.1 L38.6,20.4 C38.9,20.5 39.2,20.4 39.4,20.2 L41.9,15.9 C42.1,15.6 42,15.3 41.7,15.1 L38.9,13.3 L38.9,13.3 Z M30,17 C27.2,17 25,14.8 25,12 C25,9.2 27.2,7 30,7 C32.8,7 35,9.2 35,12 C35,14.8 32.8,17 30,17 L30,17 Z" id="Shape" fill="#FFA000" sketch:type="MSShapeGroup"></path>
        </g>
    </g>
</svg>